<svg width="1020" height="941" viewBox="0 0 1020 941" fill="none" xmlns="http://www.w3.org/2000/svg">
<path d="M505.25 731.602C464.156 731.602 426.431 722.507 392.074 704.318C358.391 686.129 331.444 660.867 311.234 628.531C291.698 596.195 281.929 557.796 281.929 513.334V205.131C281.929 194.353 279.235 184.585 273.845 175.827C268.456 167.069 261.383 159.996 252.625 154.606C243.867 149.217 234.099 146.522 223.32 146.522C212.542 146.522 202.774 149.217 194.016 154.606C185.258 159.996 178.185 167.069 172.795 175.827C168.08 184.585 165.722 194.353 165.722 205.131V719.476H0V217.257C0 174.816 9.43133 137.428 28.294 105.092C47.8303 72.7559 74.4401 47.1566 108.123 28.294C142.48 9.43133 180.879 0 223.32 0C266.435 0 304.834 9.43133 338.517 28.294C372.201 47.1566 398.81 72.7559 418.347 105.092C437.883 137.428 447.651 174.816 447.651 217.257V525.46C447.651 536.912 450.346 547.017 455.735 555.775C461.125 564.532 467.861 571.606 475.945 576.995C484.703 581.711 494.134 584.069 504.239 584.069C515.018 584.069 524.786 581.711 533.544 576.995C542.975 571.606 550.385 564.532 555.775 555.775C561.164 547.017 563.859 536.912 563.859 525.46V217.257C563.859 174.816 573.627 137.428 593.163 105.092C612.7 72.7559 639.309 47.1566 672.993 28.294C707.35 9.43133 745.412 0 787.179 0C830.294 0 868.356 9.43133 901.366 28.294C935.049 47.1566 961.659 72.7559 981.195 105.092C1000.73 137.428 1010.5 174.816 1010.5 217.257V719.476H844.778V204.121C844.778 193.342 842.083 183.911 836.694 175.827C831.978 167.069 825.241 159.996 816.484 154.606C807.726 149.217 797.958 146.522 787.179 146.522C777.074 146.522 767.306 149.217 757.875 154.606C749.117 159.996 742.043 167.069 736.654 175.827C731.265 183.911 728.57 193.342 728.57 204.121V513.334C728.57 557.796 718.465 596.195 698.255 628.531C678.045 660.867 651.099 686.129 617.415 704.318C583.732 722.507 546.343 731.602 505.25 731.602Z" fill="black"/>
<path d="M1019.09 849.735C1019.09 899.876 978.441 940.522 928.301 940.522C878.161 940.522 837.514 899.876 837.514 849.735C837.514 799.595 878.161 758.948 928.301 758.948C978.441 758.948 1019.09 799.595 1019.09 849.735Z" fill="black"/>
</svg>
