<?xml version="1.0" encoding="utf-8"?>
<!-- Generator: Adobe Illustrator 25.2.3, SVG Export Plug-In . SVG Version: 6.00 Build 0)  -->
<svg version="1.1" id="Layer_1" xmlns="http://www.w3.org/2000/svg" xmlns:xlink="http://www.w3.org/1999/xlink" x="0px" y="0px"
	 viewBox="0 0 254.2 394.1" style="enable-background:new 0 0 254.2 394.1;" xml:space="preserve">
<style type="text/css">
	.st0{fill:none;stroke:#2B3C47;stroke-width:1.3;stroke-miterlimit:10;}
</style>
<g>
	<path class="st0" d="M50.6,132.3c0.2-0.8,0.7-1.6,1.4-2.1c0.8-0.5,1.7-0.7,2.6-0.7c0.8-0.1,1.6,0,2.3,0.3c0.4,0.2,0.8,0.6,1,1
		 M55.3,133.3c-0.1,0.3-0.1,0.6-0.1,0.9c0.1,0.3,0.4,0.5,0.9,0.8c0.3,0.3,0.8,0.4,1.2,0.5c0.5,0,0.8-0.3,1.3-0.7s0.6-0.6,0.7-0.9
		c0.1-0.4,0-0.9-0.3-1.3c-0.3-0.3-0.6-0.5-1-0.5c-0.5-0.1-0.6,0.1-1.4,0.1c-0.5,0-0.6-0.1-0.8,0.1S55.5,132.8,55.3,133.3z
		 M54.8,133.8c0-0.1,0-0.2,0.1-0.4l-0.3,2l-1.9,0.5c-0.5-0.5-1-0.9-1.6-1.3c-0.1-0.1-0.2-0.1-0.3-0.2c-0.3-0.3-0.4-0.8-0.3-0.9
		s0.4,0.1,1.1,0.2c0.6,0.1,1.2,0.1,1.8-0.1c0.4-0.2,0.8-0.6,1.1-0.5c0.1,0,0.1,0.1,0.2,0.1c0.1,0.1,0.2,0.3,0.1,0.4 M61.5,126.8
		c-0.4,0.3-0.8,0.6-1.2,0.9c-0.7,0.6-1.3,1.4-1.7,2.3 M59.7,126c-0.2,0.5-0.4,1-0.7,1.5c-0.3,0.6-0.8,1.2-1.2,1.8 M56.2,124.1
		c-0.3,0.5-0.5,1.1-0.6,1.7c-0.2,0.9-0.2,1.8,0,2.7l0.8,0.4c0.5-0.1,0.9-0.5,0.9-1.1c0,0,0,0,0-0.1 M54.4,124c0,0.7,0,1.4-0.1,1.8
		c-0.1,0.6-0.1,1.2-0.1,1.7c0,0.3,0.1,0.7,0.2,1 M52.1,128c0.1,0.2,0.3,0.3,0.3,0.5c0.1,0.2,0.1,0.5,0,0.7l0.9-0.5
		c0.1-0.2,0.1-0.5,0.1-0.8c0-0.6-0.1-1.3-0.3-1.9 M64.6,133.7c-0.6-0.3-1.3-0.4-2-0.4c-1,0-2,0.2-2.9,0.6 M65.4,134.4
		c0.3,0.2,0.7,0.1,0.9-0.1c0.2-0.3,0.3-0.7,0.2-1.1c0,0-0.9-0.3-1.3,0C65,133.5,65.1,134.1,65.4,134.4
		C65.5,134.3,65.5,134.3,65.4,134.4L65.4,134.4z M63.4,132.2c-0.4,0.1-0.9,0.2-1.4,0.3c-0.8,0.1-1.6,0.1-2.4,0.1
		c0-0.2,0-0.5-0.1-0.7c-0.1-0.3-0.3-0.6-0.6-0.8l0.9-0.3 M63.8,137.3c-0.5,0.1-1.1,0-1.6-0.1c-0.6-0.2-1.1-0.5-1.6-0.8
		c-0.5-0.2-0.9-0.4-1.2-0.5c0.1-0.3,0.1-0.5,0.2-0.8l0.9,0.1c0.7,0.1,1.4,0.1,2,0.2 M64.1,139.3c-0.9,0-1.7-0.2-2.5-0.6
		c-0.9-0.5-1.7-1.2-2.3-2.1 M60.4,142.9c-0.5-0.5-0.9-1-1.2-1.6c-0.5-1-0.7-2.1-0.7-3.2l0.5-0.4c0.2,0.4,0.4,0.8,0.6,1.1
		c0.5,0.8,1.1,1.6,1.8,2.2 M64.6,135.4c0.1-0.2-0.2-0.7-0.6-0.8s-1.1,0.4-1,0.6s0.6,0.3,0.8,0.3s0.8,0,0.9-0.2L64.6,135.4z
		 M62,145.1c0.1-0.3-0.2-0.9-0.6-1c-0.4-0.1-0.8,0-1,0.3c-0.1,0.2,0,0.4,0.1,0.6c0.5,0.4,1.5,0.3,1.7,0L62,145.1z M58,143.4
		c0.2-0.7,0.3-1.5,0.3-2.2c0-0.9-0.2-1.8-0.6-2.6 M56.2,146c-0.2-0.6-0.3-1.3-0.3-2c0.1-1.1,0.3-2.1,0.5-3.1
		c0.1-0.7,0.1-1.2,0.2-1.6 M52,148.4c-0.1-0.5-0.1-1-0.1-1.6c0-0.8,0.2-1.5,0.4-2.2c0.4-1,0.6-0.9,1.1-2.1c0,0,0.2-0.5,1-3
		c0.1,0,1-0.4,1.4-0.1c0.1,0.1,0.2,0.4-0.1,1.5c-0.3,1-0.7,1.9-1.3,2.7 M48.7,146.5c0.1-0.4,0.3-0.9,0.6-1.5c0.4-0.9,0.5-1,1.1-2.2
		c0.4-1,1-1.9,1.6-2.9c0.3-0.4,0.6-0.7,0.9-1.1c0.2,0.3,0.2,0.7,0.3,1.1c0,0.7-0.3,1.4-0.8,1.9c-0.6,0.7-1.4,2.2-2.1,5.3 M48,144.2
		l1.4-1.7c0.5-0.6,1-1.2,1.4-1.8c0.5-0.7,0.8-1.4,1.1-2.2 M45,136.9c0.7-0.4,1.5-0.5,2.3-0.5c0.6,0.1,1.1,0.1,1.7-0.1
		c0.3-0.1,0.6-0.3,0.8-0.5c0.1,0.5,0.3,0.9,0.6,1.3c0.2,0.3,0.5,0.5,0.8,0.7c-0.3,0.4-0.6,0.8-0.9,1.2c-0.9,1-2.1,1.7-3.5,2
		 M46.1,134.2c0.5,0.1,1,0.1,1.5,0c0.7-0.1,1.5-0.3,2.2-0.6 M47.4,127.9c0.6,0.2,1,0.6,1.4,1c0.5,0.6,0.8,1.3,0.8,2
		c-0.1,0.3-0.1,0.6-0.2,0.9c-0.4-0.1-0.8-0.2-1.2-0.4c-0.8-0.4-1.1-0.9-1.7-0.8c-0.2,0-0.5,0.1-0.7,0.2 M54.9,146
		c0.3-0.3,0.3-0.7,0.1-1.1c-0.4-0.5-1.1-0.5-1.5-0.1c0,0-0.1,0.1-0.1,0.1c-0.2,0.2-0.2,0.5-0.1,0.8c0.3,0.5,1,0.6,1.5,0.3
		c0,0,0.1-0.1,0.1-0.1L54.9,146z M57.7,127.3c0.3-0.1,0.6-0.4,0.6-0.7c0-0.5-0.6-0.9-0.6-0.9s-0.9,0.4-0.9,0.9
		c0.1,0.4,0.5,0.8,1,0.7L57.7,127.3z M54.3,148.4c-0.1-0.2-0.9-0.3-1.1,0s0.1,1.1,0.1,1.1c-0.4,0.2,1.2-0.7,1.1-1.2L54.3,148.4z
		 M59.1,145.2c0-0.4-0.2-0.7-0.6-0.8c-0.4-0.1-0.7,0-1,0.2c-0.4,0.2-0.5,0.7-0.2,1c0.2,0.3,0.5,0.4,0.9,0.3c0.5,0,0.9-0.4,1-0.9
		L59.1,145.2z M50.3,148.2c-0.1-0.1-0.5,0.2-0.7,0.2h-0.1c0,0.2,0,0.4-0.1,0.7s-0.1,0.3,0,0.4s0.5,0,0.7-0.2s0.4-1.1,0.2-1.2
		L50.3,148.2z M52.3,150.3c0.1-0.1-0.1-0.3-0.1-0.8c0-0.1,0-0.2,0-0.2c-0.2-0.2-1.4,0.3-1.4,0.7s1.3,0.4,1.5,0.1L52.3,150.3z
		 M57.2,148.3c0.1-0.3,0.1-0.6,0-0.9c0,0-0.8-0.5-1.1-0.3c-0.4,0.4-0.4,1,0,1.4c0.4,0.2,0.9,0.1,1.1-0.3c0,0,0,0,0,0L57.2,148.3z
		 M54.7,123.4c0.1-0.1-0.1-0.4,0-0.8c0,0,0-0.1,0-0.1c-0.1-0.2-0.6,0-1.2-0.1c0,0-0.1,0-0.1,0s1.1,1,1.4,0.8L54.7,123.4z
		 M56.3,123.6c0.2,0.1,0.5,0.2,0.7,0.1c0.4-0.3,0.5-0.8,0.2-1.2c0,0,0,0-0.1-0.1c-0.3-0.3-0.8-0.3-1.1,0c-0.1,0.4,0,0.8,0.3,1.1
		L56.3,123.6z M51.2,128.2c0.1,0,0.1-0.2,0.5-0.6c0.1-0.1,0.1-0.1,0.1-0.2c0.1-0.3-0.9-0.8-1.1-0.6s0.3,1.2,0.5,1.2L51.2,128.2z
		 M44.2,138c-0.2,0.3-0.7,0.5-1.1,0.3c-0.3-0.4-0.3-1,0.1-1.3c0.2-0.2,0.6-0.3,0.9-0.2c0.3,0.3,0.3,0.7,0.1,1L44.2,138z M45.5,134.6
		c0-0.5-0.3-0.9-0.8-1c0,0-0.5,0-1,0.7c-0.1,0.1,0.2,0.8,0.7,0.9c0.5,0.1,1-0.3,1.1-0.8L45.5,134.6z M47.1,145.4
		c-0.2,0.1-0.3-0.2-0.9-0.5c-0.3-0.1-0.4-0.1-0.4-0.2s0.4-0.4,0.7-0.4c0.2,0,0.5,0.1,0.6,0.3c0.2,0.1,0.2,0.5,0,0.6L47.1,145.4z
		 M60,125.4c0.1-0.2,0.1-0.5-0.1-0.6c-0.3-0.2-0.6-0.2-0.8,0.1c0,0,0,0.1-0.1,0.1c-0.1,0.2,0,0.5,0.2,0.7
		C59.4,125.8,59.8,125.7,60,125.4c0-0.1,0-0.1,0-0.2L60,125.4z M52.6,126c0.4,0,0.8-0.4,0.8-0.8c0-0.1,0-0.1,0-0.2
		c-0.2-0.3-0.7-0.4-1-0.2c-0.2,0.1-0.3,0.3-0.3,0.4c0.1,0.3,0.3,0.5,0.6,0.5L52.6,126z M46.7,127.1c-0.1-0.2-0.3-0.4-0.6-0.4
		c-0.3,0-0.7,0.1-0.8,0.4c-0.2,0.4-0.1,0.8,0.2,1.1c0.5,0,1.4-0.9,1.2-1.3L46.7,127.1z M44.5,131.3c0.6,0.1,1.4-0.8,1.2-1.3
		c-0.2-0.4-0.7-0.5-1.1-0.4c-0.4,0.1-0.7,0.6-0.6,1C44.1,130.9,44.3,131.1,44.5,131.3z M46.2,141.6c0.2-0.3,0.1-0.7-0.1-1
		c-0.4-0.3-1-0.2-1.3,0.1c-0.2,0.3-0.2,0.8,0,1.1C45.2,142.1,45.8,142.1,46.2,141.6C46.2,141.6,46.2,141.6,46.2,141.6L46.2,141.6z
		 M48.1,149c0.3-0.1,0.6-0.5,0.6-1c0-0.4-0.2-0.8-0.6-1c-0.4-0.1-0.9,0.1-1.1,0.5c-0.2,0.7,0.2,1.3,0.9,1.5
		C47.9,148.9,48,148.9,48.1,149L48.1,149z M63.3,126.3c0.1-0.2-0.2-0.7-0.6-0.8s-1.1,0.4-1,0.6s0.6,0.3,0.8,0.3
		S63.2,126.6,63.3,126.3z M62.2,130.3c0-0.3-0.4-0.6-0.9-0.6c-0.1,0-0.6-0.1-0.8,0.2c-0.1,0.3-0.1,0.6,0.1,0.8
		C61.1,131,61.8,130.9,62.2,130.3z M65,131.6c0,0.4-0.2,0.7-0.6,0.7c-0.2,0-0.4,0-0.6-0.2c-0.2-0.4,0-0.8,0.4-1c0,0,0.1,0,0.1,0
		C64.7,131.1,64.9,131.3,65,131.6L65,131.6z M65.8,138c-0.1,0.1-0.2,0-0.7,0c-0.3,0-0.4,0-0.5,0c-0.2-0.3-0.1-0.8,0.2-1
		C65.2,136.8,65.9,137.8,65.8,138L65.8,138z M63.1,143c0.4-0.2,0.5-1.8,0.4-1.4c0,0-1.4-0.5-1.6-0.1S62.6,143.1,63.1,143L63.1,143z
		 M66.3,140.5c0.1-0.3-0.2-0.9-0.6-1c-0.4-0.2-0.8,0-1,0.3c-0.1,0.2,0,0.4,0.1,0.6C65.1,140.9,66.1,140.8,66.3,140.5L66.3,140.5z
		 M203,124.7c-0.4-0.2-0.9-0.3-1.3-0.1c-0.4,0.2-0.6,0.6-0.7,1c0,0.5,0.1,1,0.4,1.4c0.2,0.5,0.5,0.9,0.9,1.2
		c0.4,0.3,0.9,0.4,1.4,0.2c0.4-0.2,0.6-0.6,0.7-1c0.2-0.8,0-1.7-0.6-2.3C203.6,125,203.3,124.8,203,124.7L203,124.7z M213.4,137.2
		c-0.3,0.1-2.5,0.9-3.2,0.7c-0.8-0.3-1.3-1-1.6-1.8l-1.1,0.9c0.1,0.4,0.3,2,0.4,2.4 M203.6,137.2c0.2,2.1,0.5,4.2,0.9,6.3
		c0.3,1.4,1.1,4,1.5,5.1 M200.8,136.8c0.1,0.9-0.1,3.8-0.1,4.9c-0.1,1.5-0.3,3.1-0.6,4.6 M214.3,130.3c-0.7-0.3-1.3-0.5-2-0.6
		c-0.5-0.1-0.9,0-1.4,0.1 M216.5,125.9c-0.9,0.1-3.9,0.1-4.8,0.2 M218,119.7c-0.9,0.5-2.4,1.9-3.3,2.4c-1.5,0.8-2.9,1.4-4.3,2
		l0.9,0.9c0.8-0.4,1.6-0.8,2.5-1.1c1.4-0.6,4.3-1.1,5.6-1.5 M212.4,111.7c-0.2,0.9-0.4,1.8-0.7,2.8c-0.8,2.1-3.9,5-4.9,6.1
		 M213.6,120.6c-1.1,0.6-3.3,1.9-4.4,2.4l-1-1.3c0.3-0.4,0.8-1.1,1.4-1.9c0.7-1.1,1.6-2,2.7-2.8c1.1-0.5,2.2-0.9,3.4-1.1
		 M197.8,135.3c-1.2,1.3-2.5,2.4-3.9,3.5c-1.6,0.9-3.2,1.7-4.9,2.2 M190.8,137.2c1-0.2,1.9-0.6,2.8-1c1.1-0.5,2.1-1.1,3-1.8
		 M184.5,133.1c1.4,0.3,2.7,0.5,4.1,0.6c2.1-0.1,4.2-0.5,6.2-1.1 M184.8,122.9c0.8,0.8,1.6,1.6,2.6,2.3c1,0.7,2.1,1.2,3.3,1.5
		c0.8,0.3,1.7,0.5,2.5,0.6 M191.5,118.3c0.3,0.3,1.5,1.8,1.8,2.2c0.6,0.8,1.1,1.6,1.5,2.5l-0.9,1.2c-1.4,0.2-2.7-0.5-3.5-1.6
		c-0.3-1-0.4-2.1-0.4-3.2 M179.9,126.2c4.1,2,8.6,3.1,13.2,3.2l0.7,1.6c-1.1-0.1-2.3-0.2-3.5-0.3c-2.2-0.2-4.4-0.5-6.4-0.8
		 M193.2,117c0.3,0.6,0.2,0.5,0.4,0.9c0.8,1.9,2,2.8,1.8,3.2 M196,112.1c0.4,0.5,0.7,1.1,1,1.7c0.5,1,0.8,2,1.1,3
		c0.2,0.6,0.3,1.1,0.4,1.5l-1.4,1.3c-0.3-0.7-0.7-1.4-1.1-2.1c-1-1.7-0.6-1.1-1.1-1.8 M198.3,107.4c0.1,1.3,0.3,2.6,0.6,3.9
		c0.5,1.5,1.1,2,1.6,3.3c0.4,1.2,0.6,2.4,0.6,3.6 M206.4,109.5c0.3,1.9,0.3,3.8,0,5.7c-0.3,1.7-0.9,3.2-1.8,4.6l-1.5-0.8
		c0.2-0.7,0.4-1.5,0.4-2.2c0.1-1.9-0.9-4.5-1.3-5.4 M209.2,110.1c0.1,1.9,0,3.8-0.4,5.7c-0.4,1.8-1.2,3.5-2.2,5 M200.9,147.1
		c0.5,1.4,2.2,2.1,2.2,2.9c0,1.3-0.1,2.6-0.3,3.9c-0.1,0.9-0.5,3.4-0.5,3.9 M240.9,114.1c-0.8,0.9-1.4,1.8-2,2.9
		c-0.4,1.4,0,1.9-0.4,3.4c-0.2,0.7-0.5,1.4-0.9,2.1c-0.8,1.1-1.4,1.1-1.9,1.9c-0.5,0.9-0.6,2-0.4,3.1c0.1,1.5-1.6,4.8-4.5,7.9
		 M244.3,68.9c-0.9,0.7-1.7,1.5-2.4,2.3c-1,1.4-1.7,3-2,4.7c-0.1,1.3,0.3,1.2,0.3,3.8c0.1,0.9,0,1.9-0.2,2.8
		c-0.6,1.7-2.2,1.9-3.5,3.2c-1.4,1.4-1.5,3.4-1.7,7.4s0.4,4.7,0.5,9.1c0,2.9-0.2,4.2-0.3,6.4c-0.2,4.9,0.2,9.9,1.1,14.7 M235.2,61.5
		c0,0.9-0.8,3.3-1.1,4.9c-0.5,2.1-1.1,4.2-1.8,6.3c-0.8,2.9-0.6,3.9-1,7.2c-0.3,2.5-1.8,6.6-3.4,10.9 M230.9,58.7
		c0.6,1.8,0.8,3.7,0.9,5.6c-0.1,2.1-0.6,3.2-1.2,5.4c-0.8,3.2-0.4,3.9-1,8.3c-0.3,2-1.5,6.2-2.4,9.7 M223.4,54.6
		c0.6,1.2,1,2.5,1.1,3.8c0.2,1.7-0.5,2.3-0.5,4.6c0,1.7,0.4,1.7,0.4,3.4c0,1.9-0.5,2.2-0.6,3.9c-0.2,2.6,0.9,3.2,0.9,5.8
		c-0.3,1.9-0.9,3.7-1.8,5.4 M213.2,49.4c-0.5,0.6-0.4,3.9-1,5.2s-0.8,2.7-0.8,5.7c0,1.7-0.2,5.2,0,7.8 M206.3,51.7
		c-0.1,0.8-0.4,2.7-0.7,4c-0.5,2.3-0.8,3-0.7,4.3c0.1,1,0.4,2.1,0.8,3c1,2,2.1,3.9,3.4,5.8 M201.5,52.9c0.1,1.2,0.4,3.4,0.7,5.3
		c0.3,2,0.8,3.9,1.4,5.8c1.1,2.5,2.4,5,4,7.2 M198,52.6c0.7,1.7,1.2,3.5,1.4,5.3c0,1.7-0.5,2.3-0.6,4.1c0,1.4,0.1,2.8,0.6,4.2
		c0.8,2.8,1.8,3,2.4,5.6c0.4,1.6,0.1,1.8,0.4,3.7c0.4,2.5,1.2,4.8,2.3,7.1 M193.4,50.5c0,1.6,0.2,3.2,0.4,4.8
		c0.7,2.8,1.7,3.7,1.8,6.1c0,1.3-0.3,1.3-0.2,2.7c0.1,1.5,0.1,0.6,0.7,2.8 M213.4,91.9c0.1,1.4,0,2.8-0.1,4.3
		c-0.2,1.1-0.5,2.1-1,3.1c-0.9,2.9-1.4,5.8-1.4,8.8 M210,84.7c-0.1,0.7-0.1,3.3-0.4,4.6c-0.5,2.6-0.7,3.1-0.5,4.1
		c0.4,1.4,1.3,1.5,1.7,2.9c0.2,1,0.1,2-0.3,2.9c-0.6,2.7-0.9,5.4-1,8.1 M206.3,83.1c0.8,2.9,1.3,5.8,1.3,8.8c0,0.9,0,2.4,0,4.1
		c-0.1,2.8-0.3,3.9-0.1,5.6c0.3,1.9,0.6,3.8,1.1,5.7 M237.6,136.3c-1.2,0.3-2.4,0.6-3.5,0.7c-1.2,0-2.5-0.1-3.7-0.3 M197.2,161.6
		c2.1,0.8,4.3,1.1,6.6,0.9c0.9-0.1,1.3-0.2,2.4-0.2c2.9,0,3.8,0.7,5.5,0.6c1.3-0.1,1.3-0.6,4.4-2.1c4.6-2.3,6.2-2,8-4.1
		c0.9-1.1,0.6-1.3,1.7-2.5c1.6-1.7,3.1-2,4.8-3c2-1.4,3.8-3.2,5.2-5.2 M179.3,122.4l0.5,0.5c0.7,0.8,1.6,1.6,2.5,2.2
		c0.7,0.4,1.4,0.8,2.2,1.1 M192.4,49.8c1,0.4,0.3,0.3,2,1.2c0.7,0.4,1.5,0.7,2.2,1c1.2,0.6,2.5,0.9,3.9,1c1.8-0.1,1.8-1,4-1.3
		c2-0.3,2.7,0.5,3.6-0.2s0.4-2,1.3-2.7c0,0,0.5-0.3,4,0.6c0.6,1,1.5,1.8,2.5,2.3c1.8,0.7,2.7-0.3,4.4,0.4s1.4,1.8,3.2,2.6
		c1.6,0.7,1.9-0.1,3.5,0.5c1.7,0.8,3.1,2.1,4,3.6c0.9-0.4,1.9-0.6,2.9-0.5c0.4,0,0.8,0.1,1.2,0.3c0.6,0.4,1.2,1.1,1,1.6
		s-0.7,0.4-0.9,0.8s0.3,0.9,0.5,1.1c2.3,2.5,3.4,3.8,4.4,3.8c0.7,0,1.4-0.1,2.2-0.2c0.9-0.1,1.3-0.2,1.5,0c0.2,0.2-0.5,1-0.3,1.9
		c0.1,0.5,0.4,0.9,0.8,1.2c2,1.9,2.3,1.9,2.9,2.6c1.2,1.4,0.8,2.3,1.8,2.7c1,0.4,1.6-0.1,2.2,0.5c0.3,0.3,0.4,0.6,0.3,1
		c-0.1,0.6-1,0.6-1.5,1.4c-0.3,0.5-0.5,1-0.4,1.6c0.2,1,1.3,1,2.5,2.3c0.7,0.6,1.2,1.4,1.5,2.4c0.4,1.7-0.2,3.5-1.5,4.7
		c-0.7,0.6-1.2,0.5-1.5,1.1c-0.4,0.8,0,1.8,0.5,3.2s0.7,1.3,0.7,1.8c0,1.2-1.2,1.5-2,2.9c-0.5,0.7-0.3,0.9-0.9,4.3
		c-0.7,3.7-1,4.1-1.3,4.4c-1,0.8-1.8,0-3.8,0.7c-1.3,0.4-2.4,1.3-3.1,2.5c-0.9,2-0.6,4.2,0.7,5.9c1.4,1.9,3.2,1.6,3.9,3.4
		c0.3,1,0.3,2,0,3c-0.1,1.4-0.8,2.8-1.8,3.8c-1.2,1.1-2.1,0.7-2.5,1.6s0.8,1.7,0.8,3.7c0.1,1-0.2,2.1-0.8,2.9c-0.8,1-1.5,0.8-2.5,2
		c-0.6,0.6-1,1.4-1.2,2.2c-0.1,0.4-0.8,2.7,0.3,3.9c0.7,0.8,1.5,0.4,2.1,1.3c0.3,0.6,0.5,1.3,0.3,2c-0.1,1-0.6,2.4-1.5,2.6
		c-0.5,0.1-0.5-0.3-1.8-0.9c-0.5-0.2-1-0.4-1.6-0.4c-0.8,0-0.8,0.2-1.6,0.3c-1.1,0.1-1.3-0.6-2.6-0.6c-0.6-0.1-1.3,0.1-1.7,0.6
		c-0.3,0.5,0,0.9-0.2,1.5c-0.3,0.8-1.3,1.1-2.7,1.6c-1.9,0.6-2.2,0.3-2.9,0.8s-0.4,1.1-1.4,2.5c-0.4,0.7-1,1.3-1.8,1.7
		c-1.1,0.5-1.6,0-2.2,0.5c-0.9,0.7-0.4,2.1-1.2,2.5s-1.8-0.3-2.2-0.5c-1-0.6-0.9-1.1-1.6-1.2s-0.8,0.1-2.3,0.7
		c-0.7,0.4-1.5,0.6-2.3,0.6c-1.1-0.3-1-1.5-2.1-1.7c-0.7,0-1.5,0.2-2,0.7c-1.4,1-1.1,1.8-2.1,2.3s-1.4-0.3-3.2,0.1
		c-0.7,0.1-1.3,0.4-1.8,0.8c-0.3,0.3-0.6,0.6-0.9,0.9 M161.8,133.4c-2.1-1.1-4.9-1.8-5.8-1.5s-1.1,0.6-1.9,0.6
		c-0.9-0.1-1.6-1-2.4-1.6 M148.1,130c-3.9-0.5-4.8-1-6.6-0.5c-1,0.3-0.4,0.2-2.2,0.9 M207,83.3c0-0.6-1-3.2-1.1-4.3
		c-0.3-1.5-0.7-2-0.5-2.8c0.3-1.1,1.2-0.9,1.8-2.1c0.6-1.2-0.1-2,0.5-3.5c0.4-1.2,1.5-2.1,2.7-2.3c0.6-0.1,1.1,0,1.6,0.3
		c0.4,0.4,0.2,0.9,0.7,1.3c0.3,0.3,0.7,0.4,1.1,0.3c0.8-0.4,1.1-1.3,0.7-2c0,0,0-0.1,0-0.1c-0.3-0.4-0.8-0.6-1.2-0.6
		c0.4-0.5,1-0.8,1.6-0.9c1.6-0.2,2.9,1.5,3.5,2.6c0.7,1.4,0.3,2.1,0.6,4.2c0.3,1.9,0.9,3.7,1.7,5.4c1.3,2.5,2.1,2.2,4.3,5.2
		c1.6,2.2,3,4.1,3,6.8c0.2,1.9-0.4,3.8-1.6,5.3c-1.2,1.3-2.6,1.5-2.7,2.6c0,0.6,0.5,0.8,1.3,2.2c0.5,0.9,0.8,1.8,1,2.8
		c0.2,1.4-0.2,1.6,0,3s0.7,1.4,0.8,2.4c0.1,1.5-0.7,2-0.8,3.5c-0.1,1.1,0.3,2.1,1.2,4.1c1.5,3.4,2.6,3.9,2.5,5.7c0,1-0.4,1.9-1,2.6
		c-0.5,0.5-1,0.8-1.3,1.5s-0.1,0.8-0.4,1.3c-0.6,1.3-2.7,1.6-2.9,1.6c-1.6,0.2-1.8-0.6-3-0.4c-1.3,0.3-2.4,1.1-3.1,2.3
		c-0.3,0.4-0.6,0.9-1.4,3.8c-1,3.7-0.8,3.8-1.4,4.7c-1,1.6-2.1,1.9-2.1,3.2c0.1,0.7,0.3,1.4,0.6,2c0.5,1.1,1,1.4,1,2.1
		c0,0.6-0.2,1.1-0.7,1.4c-0.5,0.2-1.1,0-1.8-0.4c-1-0.5-1.1-0.9-1.7-0.9c-0.7,0-1.4,0.3-1.8,0.9c-0.4,0.9-0.4,1.9,0,2.8
		c0.5,1.6,1.9,4.2,3.6,4.1c0.8,0,1.2-0.7,2.2-1.6c2-1.8,3.7-2.1,5.3-2.9c4.6-2.1,7.7-6.9,8.4-7.9c2.4-3.7,2.8-7.3,3.4-11.4
		c0.7-4.9-0.1-6.1,1-11.3c0.8-3.8,1.4-3.8,1.4-6.1c0-4.3-2-5.1-2.1-9.7c-0.1-3.1,0.9-3.5,0.3-6.2c-0.2-0.9-0.9-4.3-3.2-5.3
		c-1.1-0.5-1.5,0.1-3.2-0.3c-1.6-0.4-4.2-1.4-4.3-2.8c-0.1-1,1.3-1.9,2.4-4.1c0.2-0.3,0.3-0.7,0.2-1.1c0-0.5-0.4-1.2-0.8-1.3
		s-0.5,0.3-1.5,0.8c-0.3,0.2-0.6,0.3-0.9,0.3c-0.7-0.1-0.8-1-1.9-2.5c-0.8-1.1-1.2-1.3-1.4-2.1c-0.2-0.8,0.1-0.9,0-1.6
		c-0.3-1.4-1.7-1.3-2.6-2.9c-0.6-1-0.7-2.3-0.2-3.4c0.5-0.7,1.1-0.6,1.6-1.4c0.4-1,0.6-2.1,0.3-3.2 M168.7,145.1
		c-0.9-1.3-1.6-2.3-2.5-3.8c-1.9-2.9-3.4-6-4.7-9.1c-0.6-1.4-1.1-2.8-1.7-4.7 M186.9,156.3c-1-0.8-2-1.5-3-2.1
		c-2.9-1.7-4.8-1.6-7.1-2.2c-1.8-0.5-3.5-1.5-4.8-2.9 M200.6,82.5c0.3-0.1,0.7-0.1,1-0.1c2.2-0.1,4.4,0.3,6.5,1.3
		c2.4,1,4.1,1.8,4.6,3.4c0.4,1.3-0.2,2.2,0.5,4.3c0.2,0.6,0.5,1.2,0.9,1.7c0.7,1,1.5,1.9,2.5,2.7c1.8,1.7,2.7,2.6,2.9,3.1
		c0.2,1.1,0.2,2.2,0,3.3c-0.1,1.7-0.2,1.5-0.2,2.1c0.1,1.7,1,2.3,1.6,4.3c0.3,0.9,0.4,1.9,0.5,2.9c0,2.4-0.4,4.8-1.1,7.1
		 M190.2,138.1c0.3-0.2,0.6-0.5,0.6-0.9c0.1-0.6-0.3-1.2-0.9-1.4c-0.6-0.1-1.2,0.3-1.4,0.9c0,0.1,0,0.1,0,0.2
		c0.1,0.8,0.7,1.3,1.5,1.3C190.1,138.1,190.1,138.1,190.2,138.1L190.2,138.1z M216.9,130.7c0.3-0.5,0.2-1.2-0.3-1.6
		c-0.6-0.4-1.4-0.2-1.9,0.3c-0.5,0.6-0.5,1.5,0.1,2.1c0,0,0,0,0,0C215.7,131.9,216.6,131.5,216.9,130.7
		C216.9,130.7,216.9,130.7,216.9,130.7L216.9,130.7z M218,126c0.4-0.4,0-1.7-0.8-2s-2,0.3-2,0.8s1,1,1.2,1.1S217.7,126.3,218,126
		L218,126z M207.1,148.6c-0.4-0.2-1,0.1-1.3,0.5c-0.5,0.6-0.3,1.7,0.2,1.9s0.9-0.3,1.1-0.8S207.5,148.8,207.1,148.6L207.1,148.6z
		 M209.4,144.2c-0.5-0.3-1.2-0.1-1.6,0.3c-0.5,0.6-0.4,1.6,0.2,2c0,0,0,0,0,0c0.9,0.3,1.8-0.2,2.1-1.1c0-0.1,0-0.1,0-0.2
		C210.1,144.8,209.9,144.4,209.4,144.2L209.4,144.2z M213.7,136.9c0.3-0.4-0.3-2.1-1.4-2.3c-0.9-0.1-1.8,0.8-1.7,1.3
		c0.1,0.3,0.6,0.5,1.8,0.8C213.2,136.9,213.6,137,213.7,136.9L213.7,136.9z M184.1,132.7c-0.1-0.4-0.8-0.5-1.3-0.4s-1,0.8-0.8,1.2
		s0.9,0.4,1.4,0.2S184.3,133.1,184.1,132.7L184.1,132.7z M200.8,147.2c0-0.5-0.3-0.9-0.7-1c-0.5-0.1-1.1,0.2-1.2,0.8c0,0,0,0,0,0.1
		c0,0.5,0.3,0.9,0.7,1c0.5,0.1,1.1-0.2,1.2-0.7C200.8,147.3,200.8,147.2,200.8,147.2L200.8,147.2z M209,140.5
		c0.2-0.4-0.4-1.3-1.1-1.3s-1.2,0.6-1.1,1s0.9,0.6,1.4,0.5C208.4,140.8,208.9,140.8,209,140.5L209,140.5z M214.8,119.3
		c0-0.6-0.4-1.2-0.8-1.2s-0.6,0.5-0.7,0.6c-0.4,0.6-0.2,1.6,0.2,1.8S214.8,120,214.8,119.3z M221.5,123c0.1-0.6-0.2-1.2-0.8-1.3
		c-0.6-0.2-1.1,0.2-1.3,0.7c-0.1,0.5,0.5,1,1.1,1C220.8,123.5,221.3,123.3,221.5,123L221.5,123z M220.2,118.6
		c-0.1-0.4-0.7-0.6-1-0.7s-1.2,0-1.4,0.6c-0.2,0.6,0.1,1.3,0.7,1.5C219.3,120.2,220.3,119.2,220.2,118.6L220.2,118.6z M217.6,115.5
		c0.1,0,0.8-0.8,0.5-1.6c-0.3-0.5-0.9-0.8-1.5-0.7c-1,0.2-1.5,2-1,2.6C216,116.2,217,116,217.6,115.5L217.6,115.5z M213.9,110.2
		c-0.1-0.5-0.6-0.8-1.1-0.8c-0.4,0.1-0.7,0.4-0.9,0.8c-0.2,0.5,0,1.1,0.5,1.4C213,111.8,214.1,110.9,213.9,110.2L213.9,110.2z
		 M210.8,108.8c0.4-0.5,0.2-1.3-0.3-1.6c-0.5-0.4-1.3-0.2-1.6,0.3c0,0,0,0.1-0.1,0.1c-0.7,0.7-0.7,2-0.1,2.4
		S210.5,109.8,210.8,108.8L210.8,108.8z M207.3,108.7c0.2-0.8-0.3-1.6-1.1-1.9c-0.5-0.2-1.1-0.1-1.5,0.3c-0.5,0.6-0.5,1.6,0.1,2.1
		c0.7,0.5,1.8,0.4,2.3-0.3C207.2,108.8,207.2,108.7,207.3,108.7L207.3,108.7z M203,110.7c0.2-0.9-0.4-1.7-1.3-1.9
		c-0.7-0.2-1.3,0.1-1.7,0.7c-0.3,0.8,0.1,1.8,0.9,2.1C201.8,111.9,202.7,111.5,203,110.7L203,110.7z M197.3,105.6L197.3,105.6
		 M197.9,107.3c0.1,0.1,0.3,0.1,0.4,0.1c0.9,0,1.6-1.5,1.3-2.1c-0.3-0.4-1-0.4-1.5-0.2c-0.3,0.1-0.5,0.3-0.8,0.5 M182.2,121.9
		c0,0.3,0.1,0.6,0.4,0.9c0.6,0.7,1.6,0.8,2.3,0.2c0.2-0.3,0.2-0.7,0.1-1 M189,141.1c-0.1-0.6-0.9-1-1.4-1.1s-1.6-0.1-2,0.6
		c-0.3,0.9,0.2,1.9,1.1,2.2c0,0,0,0,0,0c1,0.2,2-0.4,2.2-1.4c0-0.1,0-0.2,0-0.4L189,141.1z M209.5,133.1c-1,1.7-2.6,3-4.4,3.8
		c-3.3,1.1-9-1.3-11.4-5.8 M203,124.6c0.1-1,0.1-2.1-0.1-3.1c-0.2-0.9-0.9-1.7-1.8-2c-1.2-0.2-2.4,0.4-2.9,1.5 M201.7,124.5
		c-1-0.5-2.1-0.8-3.3-0.9c-0.3,0-3,0-3.8,1.7c-0.2,0.5-1.4,1.6-1.4,1.9 M203.8,125.1c0.6-0.9,1.5-1.5,2.5-1.9
		c1.5-0.1,2.9,0.9,3.3,2.4 M210.5,127.3c-0.7-0.4-1.4-0.6-2.2-0.8c-1.4-0.1-2.7,0.2-3.9,0.8 M201.3,126.5c-1.2-0.2-2.5-0.1-3.7,0.3
		c-2,0.8-3.7,3.9-3.8,4.2 M204.9,128.1c0.7,0,1.4,0.2,2.1,0.6c1.7,0.9,2.4,4,2.6,4.4 M204.1,128.1c0.4,0.7,1.3,2.1,1.7,2.8
		c0.7,1.3,1.3,2.6,1.9,3.9 M203.7,128.4c0.1,1.1,0.2,2.6,0.4,3.8c0.3,1.3,0.9,2.9,1.2,4.1 M202.6,128.6c-0.1,0.5-0.5,2.3-0.5,2.8
		c-0.2,1.3-0.2,3.8-0.3,5.1 M201.9,127.8c-0.9-0.1-1.7,0-2.6,0.3c-0.9,0.3-1.7,0.9-2.3,1.6c-0.8,1.1-1.1,2.5-0.8,3.9 M202.3,128.2
		c-0.8,0.7-1.6,1.6-2.1,2.5c-0.7,1.6-0.9,3.4-0.5,5.2 M56.4,232.5c-0.2,0.2-0.4,0.5-0.4,0.7c-0.1,0.2-0.1,0.5-0.1,0.7 M57.9,225.6
		c0.1,0.2,0.2,1.2,0.2,1.5c0.1,0.5,0,1-0.1,1.5c-0.2,1.1-0.4,2.1-0.7,3.2 M55.2,225.5c-0.1,0.4-0.2,0.9-0.3,1.3
		c-0.1,0.7-0.1,1.4,0,2.1c0.2,1,0.5,2,0.9,3 M59.1,172.9c3.2,1.7,5.3,1.8,7.2,2.5c5.9,2.2,16.7,4.3,31.1,5.5 M135.8,180.6
		c4.3-0.3,8.5-0.8,12.7-1.6 M148.5,179c-0.3-0.6,3-0.6,3.6-0.7 M122.9,379.5c14-35.9,39.1-94.8,36.8-135.8 M208.2,161.5
		c0,0,34.8,53.4,18.7,131.8c-9.6,47.1-43.8,78.2-73.6,95.7 M50,224.3c0.5,0.7,1.2,1.3,2,1.5c0.7,0.2,1.5,0.1,2.3-0.2 M52.1,223
		c0.3,0.8,0.9,1.5,1.6,1.9c0.7,0.3,1.5,0.5,2.3,0.3 M126.2,248.3c-0.8-0.3-2.1,0.6-2.8,1.7c-0.5,0.8-0.7,1.7-0.7,2.6
		c-0.1,1.4,0.3,1.6,0,2.4c-0.4,1-1.2,1.8-2.2,2.2c-0.8,0.4-1.6,0.8-2.4,1.1c-0.2,0.7-0.2,1.3,0,2c0.5,0.9,2.7,0.6,4,0.2
		c0.8-0.3,2.5-0.8,2.9-2.2c0.4-1.2-0.5-1.7,0-2.8c0.6-1.1,1.7-1.7,2.9-1.7c0.9,0,1.2,0.5,1.8,0.4c1-0.4,1.6-1.4,1.5-2.4
		c-0.2-1.1-1.1-1.9-2.2-2c-0.9-0.1-1.3,0.5-1.8,0.2S126.8,248.7,126.2,248.3z M126.8,262.8c2.2-1.1,4.3-2.4,6.3-3.9
		c1.9-1.4,3.7-3.1,5.2-5c2.1-2.6,3.6-4.5,3.9-7.4c0.3-2.5-0.3-5.1-1.7-7.2c-1.2-1.7-2.9-3-4.8-3.7c-2-0.8-4.2-1.1-6.3-0.6
		c-1.3,0.3-2.7,0.5-3.5,1.7c-0.5,1.1-0.7,2.3-0.4,3.5c0.1,1.2,0.5,2.3,1.1,3.3c0.1,0.1,0.4,0.5,0.9,1l0.3,0.4c0.4,0.4,0.6,0.6,1,1
		l0.9,0.9l1.3,1.3c0,0,1.5,1.8,2,1.5s0.2-2.1-0.7-3.5c-1-1.4-2.4-2.4-4.1-2.7 M54.8,234.7c-0.1-0.7,0.1-1.4,0.6-2
		c0.3-0.3,0.6-0.5,1-0.6c0.8-0.3,1.6-0.5,2.4-0.5c2-0.2,4.1-1.7,4.1-2.9c0-0.7-0.9-1.2-2.3-1.9c-1.8-0.9-3-1.5-6-2.8 M53.8,221.1
		c1,0.1,2.1,0.3,3.1,0.6c1,0.4,1.9,0.9,2.8,1.5c0.8,0.6,1.5,1.2,2.2,1.9 M50.5,223.2c0.4,0.8,1,1.3,1.9,1.6c0.7,0.3,1.5,0.3,2.3,0
		 M32,260.5c-2.3-0.1,0.6-1.3,2.4-1.5c1.4-0.2,2.7,0,4,0.5c1.2,0.5,2.2,1.4,2.8,2.6c0.4,0.6,0.6,1.2,0.7,1.9c0,0.3,0.2,0.6,0.5,0.7
		c0.6,0.3,1.2,0.4,1.8,0.2c0.8-0.2,1.5-0.8,1.9-1.6c0.8-1.5,1-3.2,0.6-4.8c-0.1-0.8-0.3-1.6-0.5-2.3 M113.8,270.4
		c0.2,0.6,0.6,1.1,1.1,1.5c1.4,1,4,0.6,5.7,0.4c7.2-0.9,12.2-7,12.2-7c9.3-7.1,13.4-15.7,14-21.6c0.2-1.8,0.1-3.7-0.4-5.5
		c-0.1-0.4-1.9-6.2-7.1-8.5c-1.8-0.8-5.1-1.3-10.9-0.3c-6.2,1.1-4.9,2.5-5.5,3.3 M38.1,279.9c1.5,0.4-0.9,1.9-1.6,2.8
		c-0.8,1.1-1.2,2.5-1.2,3.9c-0.1,1.1,0.3,2.2,1,3c0.7,0.7,1.4,0.5,2.1,1.4c0.4,0.5,0.7,1.1,0.8,1.8c0.2,0.7,0.5,2.3-0.4,5.5
		c-0.6,2.2-0.9,2.1-1.1,3.5c-0.3,1.6-0.2,3.2,0.3,4.7c1.2,4.1,5,6.1,6.1,6.8c1.8,0.9,3.7,1.5,5.6,1.7c4.7,0.7,9.1,0.7,15.9,0
		c8.6-0.9,14-1.4,16.5-1.1c6.7,0.8,11,3.4,12.4,4.7c1.1,1,3.1,3,8.5,12.5c1.5,2.7,3.1,5.3,4.9,7.8c2.7,4,6.2,6.4,8.4,14.5
		c2,7.4-1.6,26.6-1.1,29.6 M54.1,173.3c-1.2,4.4-1.3,4.2-2.8,9.5c-1.2,4.1-1.9,6.6-2.9,10.1c-0.7,2.7-1.4,5.4-2,8.9
		c-0.8,4.7-0.7,6.3-0.6,7.2c0,0.1,0.2,1.2,0.4,2.5s0.4,2.1,0.4,2.4c0.3,1.1,0.5,2.2,0.6,3.4c0,0.1,0,0.2,0,0.4
		c0,1.8-0.4,3.6-1.1,5.2c-0.6,1.5-1.4,3-2.3,4.4c-2.4,3.9-3.2,4.2-5.4,7.7s-1.7,3.5-3.6,6.1c-1.5,2.1-1.8,2-4.8,5.8s-3.8,5.1-4,6.5
		c-0.3,1.5-0.1,3,0.5,4.3c0.9,2,3,3.8,5,3.9c0.5,0,1.1,0,1.6,0.1c0.9,0.2,1.8,0.5,2.6,0.9c1.5,0.8,2.4,1.3,2.8,2.1s0.2,1.7-1.2,4.8
		c-0.6,1.4-1.5,3.1-2.6,5.2c-0.2,0.5-0.2,1-0.1,1.5c0.2,1,1,1.7,2.2,2.7c0.4,0.3,0.8,0.6,1.2,0.9c1.1,0.7,3.9,2,9.9,2"/>
	<path class="st0" d="M114.5,3.9c0.6,1,1.1,2.1,1.5,3.3c0.5,1.2,0.8,2.5,0.8,3.8c0,0,0.2,2.7,0.6,5.5c0.6,4.7,1.4,5.1,0.9,7
		c-0.4,1.6-1.1,1.7-1.6,3.8c-0.3,1.4-0.4,2.9-0.2,4.4c0.2,2.8,0.7,5.6,1.3,8.4c1.2,5.3,1.8,8,2.1,9.4c0.7,3.1,1.1,4.6,1,6.8
		c-0.2,1.5-0.5,3.1-0.9,4.6c-0.4,1.9-0.1,6.4,0.4,10 M109.7,41.2c0.5,4.2,0.9,8.4,1.1,10.3c0.3,2.2,0.4,3.5,0.7,5.4
		c0.5,3.3,1,5.4,1.2,5.9c0.4,1.8,1.2,4.5,1.6,5.6 M114,3.6c0.4,5,0.5,10.1,0.2,15.2c-0.4,6.1-1,7.3-1.2,13.1
		c-0.1,4.6,0.3,3.7,0.6,14.2c0.3,7.5,0.1,10.1,0.9,15c0.5,3.1,2.1,7.2,2.5,8.9 M104.8,1.6c0,1,0.2,3.7,0.2,5.7
		c0,2.6-0.1,3.6-0.1,5.4c0,1.4,0.4,5.2,0.7,7.8 M107.7,26.5c-0.8,2.6-1.4,5.2-1.9,7.8c-0.2,2-0.4,4-0.4,6c0,3.3,0.2,3,0.1,5.3
		s-0.4,3.1-0.7,7.1c-0.1,1.5,0.5,4.2,0.4,5 M100.7,17.8c0.1,2.7,0.4,6,0.5,7.9c0.2,3.2,0.4,4.8,0.7,7.1c0.4,2.9,0.7,3.4,1,6
		c0.2,1.7,0.2,3.5,0,5.2c-0.2,1.4-0.4,1.4-0.6,2.9c-0.2,1.9-0.2,3.7,0,5.6c0.1,2,0.3,4,0.7,6c0.6,2.4,1.1,2.8,1.6,5
		c0.4,2.1,0.6,4.2,0.6,6.3 M104.8,70.8c-0.6-0.9-2.3-2.6-3.3-4.2c-2.5-3.8-4.5-7.8-5.9-12.1c-1.5-4.9-0.2-4.5-2-11.4
		c-0.7-2.8-1.5-5.2-2.9-9.1c-1.7-5-2.1-5.5-2.8-8c-0.9-3.5-1.4-7.1-1.7-10.7 M69.8,19.7c1,1.1,1.8,2.3,2.6,3.6
		c1.3,2.6,1.4,3.6,2.5,5.8c1.2,2.5,1.6,2.4,3.3,5.4c0.8,1.4,0.9,1.8,2.9,6.1c2.6,5.7,3.9,8.5,4.5,9.4c1.7,2.3,2.9,3,3.7,5.5
		c0.4,1.4,0.7,2.7,0.8,4.1c0.3,2.2,0.3,3.3,0.8,5.7c0.1,0.7,0.3,1.4,0.5,2.1c0.8,2.1,1.9,2.2,3.1,4.1c1.1,1.6,0.6,2.1,2,4.9
		c0.8,1.5,1.6,2.9,2.6,4.3 M54.6,26.9c0.4,0.3,1.5,1.7,2,2.3c0.7,0.8,1.2,1.8,1.6,2.8c0.4,1.5-0.1,1.9,0.5,3.2
		c0.3,0.6,0.6,1.1,1.1,1.6c0.6,0.7,2.2,2.8,2.6,3.2 M84,62.9c0.6,2.3,1,5.2,1.3,6.4c0.9,4,1,5.3,1.9,8.2c0.6,2.2,1.3,3.8,1.5,4.2
		c1.1,2.7,3.4,5,4.3,6.6 M76.4,61.6c1.7,2.7,3.2,5.5,4.4,8.4c1,2,1.2,2.6,3.9,7.9c1.3,2.6,1.8,3.7,2.6,5c1.2,2.1,4.3,5.4,5.1,6.5
		 M69.9,55.9c0.6,0.8,1.9,2.8,2.7,4.4c1.4,2.6,1.6,3.5,2.7,5.4c1.3,2.1,1.7,2.1,3.3,4.3c1.7,2.4,2,3.7,3.6,6.5
		c1,1.8,5.2,8.8,7.4,11.9 M55.9,41c1.1,1.2,2.4,2.4,3,3.1c1.7,1.8,2.4,2.2,2.9,3.4s0.1,1.4,0.6,2.6s1.2,1.5,2.4,3
		c1,1.1,1.8,2.3,2.4,3.6c0.9,2,0.5,2.7,1.1,4.5c0.5,1.4,1.2,2.4,3.1,4.5c4.1,4.5,5.4,4.9,7.5,7.6s1.9,3.6,4.1,7.1
		c2.5,4,5.6,7.6,9.2,10.6 M50.8,41.5c2.2,1.9,3.8,4.6,4.8,5.8c2.3,2.7,2.3,3.2,5.8,7.5c1.1,1.3,1.9,2.2,3,3.8c0.5,0.7,1.4,2,2.4,3.8
		c2,3.6,1.7,4,3.4,7c1.3,2.4,2.8,4.6,4.7,6.6c1.6,1.7,2.2,1.9,3.3,3.5c1.2,1.8,1.3,3,2.2,5.1c0.6,1.5,3.7,5.4,5.5,7.7 M106.9,70
		c0.3-1.7,0.3-3.5,0-5.3c-0.1-1.2-0.4-2.3-1-3.4c-0.6-1-1.1-1.3-1.1-2.1c0-0.4,0.1-0.8,0.8-2c1.2-1.8,1.8-1.9,2.4-3
		c0.5-0.8,0.5-1.8,0.6-3.8c0.1-2.8-0.4-3.2-0.2-5.2c0.1-1.7,0.5-1.7,0.9-4.1c0.5-1.9,0.6-3.8,0.5-5.8c-0.3-2.2-0.9-2.2-1.6-6
		c-0.2-1.3-0.4-2.7-0.5-2.9c-0.4-2.6-0.2-2.6-0.4-3.3c-0.9-3.6-6.1-5.5-6.7-5.7c-1.7-0.6-2.7-0.5-4.2-1.7c-1.1-0.8-0.9-1.2-2-2
		c-0.4-0.3-2.8-2-4.9-1.2c-0.7,0.3-1.4,0.8-2,1.4c-0.7,0.7-1,1.3-1.7,1.4c-0.4,0-0.8,0-1.1-0.2c-1.1-0.3-1.4-0.5-1.9-0.7
		c-1-0.2-2,0-2.9,0.5c-1.3,0.6-1.1,1.1-2.4,1.8c-1,0.4-2,0.6-3.1,0.7c-1.2,0-1.5-0.3-2.2,0c-0.6,0.3-1.2,0.7-1.7,1.2
		c-0.6,0.6-0.5,0.8-0.8,1c-0.6,0.3-1,0-2.5-0.3c-0.8-0.2-1.5-0.2-2.3-0.1c-0.9,0.2-0.9,0.4-1.6,0.6c-1.4,0.2-2-0.9-3-0.5
		c-0.5,0.2-0.4,0.6-1.4,1.3c-0.4,0.3-0.8,0.5-1.2,0.6c-0.7,0.1-0.9-0.2-1.2,0s-0.1,1-0.4,2.3c-0.2,0.9-0.6,1.8-1.1,2.5
		c-0.4,0.6-0.6,0.9-1,1c-0.9,0.3-1.5-0.6-2.6-0.3c-0.5,0.1-0.4,0.3-1.4,1s-1.4,0.6-1.9,1.1c-0.3,0.5-0.6,1-0.7,1.6
		c0.4,0.8,1.1,1.6,2,1.7s1.1-0.5,1.7-0.3s0.8,1.4,0.8,2.1s-0.4,0.8-0.4,1.8s0.2,1.1,0,1.7s-0.5,0.6-0.9,1.2c-0.6,0.8-1,2.2-0.6,2.6
		c0.2,0.2,0.6,0.1,1.4,0c0.7-0.1,1.3-0.3,1.9-0.5c0.9-0.2,1.8-0.2,2.7,0.2c0-0.3,0.2-0.7,0.4-0.9c0.1-0.1,0.4-0.3,1.5-0.3
		c0.6,0,1.2,0.1,1.8,0.2c1.3,0.3,1.4,0.5,1.9,0.4s0.6-0.4,1.3-0.6c0.7-0.2,1.4-0.2,2,0.1c1.1,0.4,1.9,1.3,2.3,2.4
		c0.4,1.1,0.6,2.3,0.7,3.5c0.3,2.3,0.5,3.4,0.5,3.4c0,0.6,0.1,1.3,0.4,1.8c0.2,0.4,0.3,0.4,0.8,1.2s0.6,1,0.5,1.3s-0.4,0.5-0.5,1.1
		s0.1,1.2,0.5,1.4c0.2,0.1,0.4-0.1,1.1-0.4c0.9-0.4,1.4-0.7,1.7-0.6c0.7,0.1,1.2,1.1,1.4,1.8c0.2,0.9-0.2,1.1,0,2
		c0.2,0.8,0.8,1.6,1.5,2.1c0.7,0.7,1.5,1.2,2.4,1.5c1.6,0.5,2-0.1,4,0.2c1.4,0,2.7,0.5,3.8,1.3c1,0.8,1.6,2,2.8,2.5
		c0.3,0.1,0.7,0.3,1,0.4c0.4,0.2,0.8,0.5,1.1,0.8c0.5,0.5,0.4,1.3,0.3,2.8c-0.1,1.3-0.1,2.6,0,3.8c0.1,1,0.4,2,0.9,2.8
		c0.3,0.4,0.5,0.8,0.6,1.3c0.1,0.4,0.2,0.8,0.2,1.3c0.1,1.8-0.5,2.4-0.4,3.9c0.1,0.8,0.2,0.7,0.5,2c0.2,1.1,0.3,2.3,0.1,3.5
		c-0.2,1.8-1.9,3.8-2.5,4.8 M191.3,48.6c0.3-0.8,1.2-2.9,1-4.2c-0.3-1.6-1.1-1.7-1.5-3.3s0.3-1.8,0-4.1c-0.1-0.9-0.4-1.8-0.7-2.6
		c-0.3-0.7-0.8-1.4-1.3-2c-1.2-1.2-2-0.9-2.4-1.7s0.3-1.3,0-2.8c-0.1-0.6-0.4-1.1-0.7-1.6c-0.8-1.1-1.6-1-2.3-1.8s-0.3-1.4-1-3.2
		c-0.5-1.1-1.2-2.1-2.1-3c-1.3-1.5-1.6-1.2-2.9-2.7c-0.9-1-1.8-2.2-2.4-3.4c-0.9-1.5-0.7-1.7-1.2-2.4c-0.8-1.1-1.9-1.7-5-2.7
		c-2.5-0.8-3.5-0.9-6.8-1.7c-1.5-0.4-3.5-0.9-6-1.6c-4.5-1.3-4.4-1.6-6.1-1.8c-1.3-0.2-3.2,0.2-6.9,0.7c-4.3,0.7-5.2,1-7.2,0.7
		c-1.3-0.2-2.6-0.5-3.9-1c-2.3-0.8-2.6-1.5-4.1-1.7c-1.3-0.2-2.4,0.1-4.4,0.7s-2.5,1.1-5.2,2c-2.2,0.7-2.8,0.7-3.3,0.5
		c-1.1-0.4-1.1-1.1-2.7-2.1c-0.8-0.6-1.8-0.9-2.8-1c-1.6,0-1.9,0.9-3.8,0.9l-1.8-0.3c-0.8-0.2-1.6-0.3-2.4-0.2
		c-0.6,0.1-1.2,0.3-1.8,0.5c-1.6,0.3-1.9-0.2-2.8,0.1c-0.6,0.2-0.6,0.5-2.4,2.8c-1.1,1.4-1.5,1.7-2.1,2c-0.6,0.2-1.2,0.3-1.8,0.4
		c-1.6,0.3-1.6,0.1-1.9,0.3c-0.8,0.3-1.3,1.2-2.2,3c-0.3,0.6-0.6,1.2-1.1,1.7c-0.4,0.4-1.6,2.5-1.9,2.7 M143.3,88.3
		c1.2-0.5,2.4-1.1,3.5-1.8c2.1-1.4,4-3.1,5.6-5c1.1-1.2,5.1-3.9,13.3-9.4c3.8-2.6,7.9-5.3,7.9-5.3c4.4-2.9,4.4-2.9,4.9-3.3
		c4.7-3.7,4-5,7.9-8c2-1.4,3.5-3.5,5.6-4.6c0.2-0.1,0.3-0.2,0.4-0.4c0.2-0.4-0.1-1.1-0.5-1.5c-0.6-0.7-1.2-0.3-1.9-1
		c-0.5-0.5-0.8-1.1-1-1.7c-0.3-0.9-0.1-1.2-0.5-2.1c-0.3-0.7-0.4-1-0.8-1.2c-0.5-0.2-0.9,0.3-2.2,0.5c-0.7,0.2-1.2,0.2-1.4,0
		s-0.1-0.6,0.1-2.1c0.1-0.5,0.1-1,0.1-1.6c-0.1-0.3-0.4-0.6-2.3-1.3s-2-0.6-2.5-1c-0.7-0.6-1.1-1.5-1-2.5c0.2-1,0.9-1,1.1-2
		c0-1-0.4-1.9-1.1-2.6c-0.8-0.6-1.8-1-2.8-1c-1.2-0.1-1.3,0.3-3.5,0.5c-0.8,0-1.6,0.1-2.4,0.2c-1.6,0.4-1.7,1-3.2,1.2
		c-0.9,0.2-1.8,0.2-2.5-0.3c-0.7-0.5-0.5-1-1.3-1.9c-0.7-0.8-1.5-1.4-2.5-1.7c-1.3-0.3-1.8,0.3-3-0.2c-0.5-0.2-0.9-0.5-1.2-0.9
		c-0.5-0.7-0.2-1.3-0.4-1.9c-0.4-1.2-2.1-1.5-4.1-2c-1.9-0.5-3.8-1.1-5.6-1.9c-0.4,1.5-0.5,3.1-0.3,4.7c0.4,2.5,1.5,3.2,1.8,6.2
		c0.1,1.2,0.1,2.3-0.2,3.5c-0.4,1.5-1,2-1.5,3.4c-0.4,1.4-0.6,2.9-0.4,4.4c0.2,8.7,0.1,9.7-0.1,10.9c0,0.1-0.5,1.5-1.3,4.2
		c-1.6,4.9-1.5,4.8-1.6,5.1c-0.7,3.5,0.1,4.6-0.9,7.5c-0.5,1.4-1.1,2.7-1.8,4 M144.8,88.3c1.4-0.6,3.5-1.6,5.9-2.7
		c4.1-2,6.1-2.9,7.8-3.9c4.6-2.7,4.6-3.6,7.5-4.5c2.3-0.8,3-0.4,5-1.5c1.5-0.8,1.6-1.3,4.5-3.7c1.3-1.2,2.8-2.2,4.3-3.1
		c1.2-0.6,1.4-0.5,4.7-1.7c2.3-0.9,3.4-1.4,4.1-1.7c2-0.7,3.5-2.4,3.9-4.5c0.1-1,0.9-2.2,0.5-3.7c-0.2-0.8-0.5-1.2-1-2.4
		c-0.4-1.1-0.6-2.2-0.8-3.4 M143.9,95.3c0.5,0.1,1.1,0.2,2,0.3c2.5,0.3,5.1,0.3,7.6,0c6.2-0.8,9.3-1.1,11.2-1c0.5,0,0.5,0.1,9.1,1.6
		c3.3,0.6,5,0.9,5.2,0.9c4.8,0.2,5.5-1.8,12.2-3c4.4-0.8,7.4-0.6,8.3-2.6c0.3-0.7,0.4-1.5,0.4-2.3c0.1-2.3-0.8-3.3-0.1-4.5
		c0.3-0.6,0.8-0.8,0.8-1.4c0-0.6-0.2-1.1-0.6-1.6c-0.6-0.8-1.3-0.8-1.3-1.2c0-0.4,0.5-0.6,1.5-1.3c0.7-0.5,1.3-1,1.8-1.7
		c0.3-0.6,0.5-1.4-0.9-4.6c-1.5-3.8-2.4-5.7-3.9-6c-0.4,0-0.8-0.1-1.2-0.1 M195.9,66.8c-0.3,0-0.7,0-1.2-0.1c-1.3-0.2-1.7-0.3-2-0.6
		c-0.4-0.5-0.7-1.1-0.7-1.8c-0.1-0.6-0.2-1.2-0.2-1.7 M138.4,109.2c1.3,0.6,2.6,1.3,3.8,2.1c2.9,1.9,3.3,3,5.7,4.1
		c1.8,0.8,2,0.4,3.7,1.4c2,1,2.1,1.7,3.7,2.4c1.4,0.5,2.8,0.7,4.3,0.6c2.2,0.1,2.4-0.3,5-0.2c2,0.1,3,0.3,3.8,0.9s0.6,0.9,1.4,1.3
		c1.4,0.8,2.3-0.1,5.1,0.2c1.5,0.1,1.4,0.4,2.7,0.4c1.3,0,2.6-0.2,3.9-0.5c2.8-0.4,3,0.3,4.7-0.1c0.7-0.2,1.1-0.4,4-2.6
		c4.8-3.8,5.1-4.3,5.3-5c0.5-1.8-0.5-2.5,0.4-4.3c0.6-1.2,1.5-1.6,1.5-2.8c0-0.4-0.1-0.8-0.8-2.1c-1.4-2.5-1.9-2.4-2.2-3.5
		s0-1.5,0.4-4.7c0.2-1.6,0.3-2.4,0.4-3.3 M133.6,127.3c1.4-0.3,2.9-0.5,4.4-0.7c1.4,0,2.9,0.1,4.3,0.5c1.1,0.3,1.2,0.6,3.3,1.6
		c2.6,1.3,3.9,1.9,5.3,2.1c1.7,0.1,3.4-0.3,4.9-1.1c1.9-0.9,3.6-2.1,5.2-3.5c0.1-0.1,2.1-1.8,3.4-1.7c0.3,0,0.6,0,0.9,0
		c0.4,0,0.9-0.1,1.3-0.3c0.7-0.3,0.6-0.8,1.2-1.2c0.4-0.2,0.9-0.3,1.4-0.3 M130.8,137.2c-0.2-0.1-1.3-0.8-1.7-1.1
		c-1.2-0.8-1.3-0.8-1.5-1.1c-0.5-0.6-0.1-1-0.6-2.5c-0.3-0.9-0.5-0.8-0.9-2s-0.2-1.1-0.5-1.7c-0.5-1.1-1.1-1-1.6-2s-0.1-1.3-0.6-2.3
		c-0.6-1-1.6-1.7-2.7-2.1c-1.1-0.4-1.2,0-2.3-0.5s-0.9-0.8-2.1-1.3c-1-0.4-1.3-0.4-1.8-0.9s-0.4-0.9-0.9-1.3
		c-0.8-0.7-2.1-0.6-2.9-0.5c-1.2,0.1-1.1,0.4-1.8,0.4c-0.3,0-0.8-0.1-3.1-1.5c-0.5-0.4-1-0.6-1.5-0.9c-1.1-0.3-1.4,0.1-2.3-0.2
		c-1.1-0.4-1-1.3-2.1-1.7c-0.7-0.3-1.4-0.1-2.8,0.2c-1.6,0.4-2,0.8-2.6,0.5s-0.4-1.1-1.2-1.5c-0.6-0.4-0.9,0-2.1-0.4 M91.2,112.9
		c-0.6-0.2-1.1-0.4-1.5-0.8c-0.9-0.7-0.6-1.3-1.3-2.2c-0.7-0.8-1.6-1.3-2.7-1.4c-1.1-0.1-2.2,0.2-3.1,0.9c-0.9,0.7-1,1.4-1.5,1.3
		s-0.5-0.5-1.4-1.7c-0.5-0.7-1.1-1.4-1.7-2c-0.9-0.9-1.4-1.3-1.8-1.2s-0.5,0.3-0.7,0.8 M75.5,106.5c-0.2,1-0.8,2-1.5,2.7 M74,109.2
		c-0.8,0.6-1.8,0.9-2.8,0.9c-1.5,0-2.2-0.7-4.4-1.8c-4-2-5.4-1.6-6.3-3.3c-0.4-0.9-0.7-1.9-0.9-2.9c-0.4-1.6-0.3-2.2-0.9-2.7
		c-0.8-0.6-1.8-0.8-2.8-0.6c-0.8,0.1-1.6,0.3-2.3,0.7 M53.8,99.6c-0.4,0.2-1.2,0.5-1.4,0.5c0,0-5.6,2.8-4.3-2.1 M51.1,84.3
		c0.4-0.2,1-0.5,1.9-0.8 M52.9,83.5l0.4-0.2c2.8-1.3,3-1.7,4.1-2.1c0.8-0.3,2.4-0.7,8.4,1.2s8.9,2.9,11,4.9c1.1,1,3.5,3.6,6.2,4.4
		c0.6,0.2,1.3,0.3,1.9,0.5c2.1,0.4,2.5,0,3.7,0.4c1.2,0.4,2.2,1.2,3,2.1c1.6,1.6,1.4,2,2.6,2.8c1.6,1,2.2,0.4,3.4,1.4
		s0.7,1.5,1.9,2.9c0.9,1,2,1.8,3.2,2.4c2.1,1.3,2.3,1.2,3.1,1.9c1.1,1,1,1.6,2.2,3.4c1,1.5,2.1,2.8,3.3,4c2,2,2.9,3,4.2,3.4
		c1.6,0.5,2-0.1,4.4,0.7c1.1,0.3,2.1,0.8,2.9,1.6c0.3,0.3,0.5,0.6,0.7,0.9c0.4,0.8,0.8,1.6,0.9,2.5c0.4,1.7,0.1,1.6,0.4,2.3
		c0.5,1.1,1.1,1,2,2.3c0.5,0.8,0.9,1.6,1.1,2.5c0.4,1.6-0.1,2,0.3,3.1s1.1,1.1,2,2.6c0.6,1.1,0.3,1.3,1.1,3.7c0.8,2.3,1.3,2.7,1.6,3
		c0.6,0.4,1.4,0.6,2.2,0.5c1-0.2,1.1-0.8,1.9-1s1.2,0.2,3.2,1.3c1.3,0.8,2.7,1.5,4.1,2c1.3,0.3,1.9,0.1,2.5,0.7
		c0.5,0.6,0.8,1.3,0.9,2.1c0.2,1.3-0.1,1.8,0.3,2.2c0.1,0.1,0.3,0.3,2,0.4s1.9,0,2.3,0.3s0.3,0.6,1,1.4c0.4,0.5,0.8,1,1.2,0.9
		s0.8-0.7,1-0.9c0.4-0.8,0.1-1.2,0.3-1.9c0.4-1.5,2.4-2.2,2.8-2.3c1.1-0.4,1.3,0,2.1-0.4s0.9-0.7,2-2.5c0.6-1.1,1.3-2.1,2.1-3
		c1.1-1.1,1.7-1.2,2-2c0.2-0.9,0.1-1.9-0.5-2.7c-2.2-0.2-4.3-0.2-6.5,0c-2,0.2-3.2,0.5-4.5-0.2s-1-1.3-2.6-2.4
		c-1-0.6-2.2-1.1-3.3-1.4c-1.6-0.6-1.7-0.4-2.9-0.9c-2.2-0.9-2-1.6-3.6-2.2c-2.2-0.8-2.9,0.5-4.9-0.4c-1.4-0.6-1.3-1.4-3-2.2
		c-1.2-0.5-1.4-0.2-3.1-0.8c-2.4-0.8-4.5-2.4-6.1-4.4c-1.1-1.4-0.9-1.8-2-3c-0.7-0.8-1.5-1.5-2.4-2c-1.1-0.6-1.6-0.4-3.5-1
		c-0.8-0.2-1.6-0.6-2.4-0.9c0.5-0.5,1.2-0.9,1.9-1.1c0.7-0.1,1.4-0.2,2.1-0.1c2.1-0.1,2.3-0.2,2.9,0c0.8,0.3,0.6,0.5,1.7,1.1
		c0.9,0.4,1.8,0.7,2.7,0.9c1.4,0.4,1.5,0.4,2.6,0.7c1,0.2,1.9,0.5,2.8,0.9c1.2,0.6,1.3,1.3,2.5,2.3c0.5,0.4,0.7,0.5,3.7,2
		c4,2,4.6,2.3,5.6,2.1c0.9-0.2,1.7-0.5,2.5-1c2.2-1.1,2.1-1.6,3.4-2s1.5,0.1,4.3,0c0.7,0,1.6-0.2,3.4-0.5c1.5-0.3,2.9-0.5,4.4-0.7
		c1.5-0.2,3,0,4.4,0.5c1,0.4,1.8,1,2.6,1.7 M102.9,121.2c-0.2-0.1-1.1-0.8-1.3-0.9c-1.8-1.5-3.3-3.4-4.4-5.4 M125.6,130.2
		c-4-1.6-8.5-3.3-11.5-4.3 M118.3,107.2c0-0.6,0-1.1,0.1-1.7c0.1-0.6,0.4-1.2,0.7-1.7 M118.8,109c0.1-0.3,0-0.7-0.3-0.9
		c-0.2-0.2-0.5-0.3-0.9-0.3c-0.2,0-1.1-0.1-1.4,0.5c-0.1,0.3-0.2,0.6-0.1,0.9c0.1,0.4,0.3,0.7,0.7,0.9c0.4,0.1,0.9,0,1.3-0.3
		C118.5,109.6,118.7,109.4,118.8,109L118.8,109z M140.3,102.5c-0.4-0.5-0.8-1-1.2-1.4c-0.8-0.6-1.6-1.2-2.5-1.7
		c-0.5-0.3-0.9-0.6-1.2-0.7 M141.1,106.4c-0.5-0.8-1-1.6-1.6-2.3c-0.9-0.9-1.8-1.8-2.8-2.6c-0.6-0.6-1.4-1.4-2.3-2.4 M137.2,105.5
		c-0.9-0.6-1.6-1.3-2.2-2.2c-0.5-0.7-0.8-1.4-1.1-2.1c-0.2-0.5-0.4-1.1-0.6-1.7 M133.7,113.1l-0.8-2.7c-0.9-2.9-1.1-3.5-1.4-4.3
		s-0.6-1.7-1.2-2.9c0.3-0.1,0.6-0.2,0.9-0.3c0.3-0.2,0.6-0.3,0.8-0.6c0.1,0.6,0.2,1.1,0.4,1.7c0.2,1,0.6,1.9,1.3,2.6
		c0.2,0.2,0.4,0.4,0.7,0.6 M130.9,110.5c-0.5-0.4-0.8-0.9-1-1.5c-0.1-0.8-0.1-1.6,0.1-2.4c0.1-0.9,0.1-1.8-0.1-2.7 M124.5,106.3
		c0.2-0.4,0.4-0.9,0.5-1.3c0.3,0.2,0.7,0.2,1,0.3c0.3,0,0.6-0.1,0.9-0.2c0.1,0.6,0.2,1.2,0.1,1.8c-0.1,0.7-0.2,1.4-0.5,2.1
		 M121.1,104.2c0.1,0.6,0.1,1.2,0.1,1.7c0,0.5-0.1,1-0.2,1.5 M117.5,102.9c-0.4,1-0.9,2.1-1.4,3.1c-0.6,1.3-1.2,2.4-1.9,3.5
		 M113.9,102c0.1-0.3,0.3-0.5,0.5-0.6c0.4-0.2,0.8-0.2,1.2-0.1c0.1,0.3,0.3,0.5,0.4,0.8l1,0.6c-0.2,0.4-0.5,0.8-0.8,1.1
		c-0.3,0.4-0.7,0.8-1.1,1.1 M113.2,100.4c-1.6,0.2-3,1.3-3.6,2.8 M107.6,99.4c0.6,0,1.2,0,1.7-0.2c0.7-0.2,1.3-0.4,1.9-0.8
		c0.3,0.1,1,0.4,1,0.9s-0.6,0.6-1.1,0.8c-1.2,0.5-2.3,1.1-3.3,1.8 M112.3,96c-1.3,0.5-2.6,0.8-4,1.1c-1.1,0.2-2.3,0.3-3.5,0.3
		 M102,91.3c1-0.6,2.1-1,3.3-1.2c2.1-0.4,4.3-0.2,6.3,0.7v2.6c-0.6,0-1.3,0-1.9,0.1c-1,0.1-2,0.4-3,0.7 M143.7,97.5
		c-0.6,0.5-1.3,0.7-2.1,0.8c-1.2,0-2.3-0.6-3-1.5c-0.2,0.4-0.4,0.8-0.5,1.2c0.9,1.2,2.4,2,3.9,2 M137.8,93.1c0.6,0,1.2,0.2,1.8,0.4
		c0.6,0.4,1.1,0.9,1.5,1.4 M144.2,90.3c-0.7-0.4-1.4-0.8-2.1-1.1c-0.7-0.2-1.4-0.3-2.1-0.3c0.1,0.3,0.2,0.7,0.1,1.1
		c-0.1,0.5-0.2,0.9-0.5,1.2c0.3,0.3,0.6,0.5,1,0.7c0.2,0.1,0.5,0.1,0.8,0.1 M144.6,83.2c-0.8-0.3-1.7-0.5-2.6-0.7
		c-0.9,0-1.9,0.2-2.7,0.6c0.3,0.4,0.4,0.8,0.5,1.2c0.1,0.3,0.1,0.7,0,1c0.3,0.1,0.7,0.2,1.1,0.2s1.4,0.4,1.8,0.4 M139.6,81
		c-0.5,0-1,0-1.5,0c-0.6,0.1-1.2,0.2-1.8,0.2 M142.2,77.9c-1.1,0.1-2.2,0.4-3.2,0.7c-1,0.4-1.9,0.9-2.7,1.5 M137.3,73.7
		c-0.4,0.6-0.9,1.2-1.3,1.7l-1.9,2.4c0.5,0,1,0.2,1.3,0.6c0.2,0.1,0.3,0.3,0.4,0.5c0.3-0.4,0.6-0.8,1-1.1c0.5-0.4,1.1-0.6,1.8-0.7
		 M100.7,76c0.7,0.6,1.6,1.2,2.5,1.5c0.9,0.3,1.8,0.5,2.8,0.5c1.9,0.2,2.1,0,3.1,0.2c0.9,0.1,4.1,2.3,5.5,3.2 M104.6,75.5
		c1,0.3,2.1,0.7,3.1,1c2,0.7,5.5,1.9,7.3,2.7 M130.5,72.2c-0.7,0.7-1.2,1.6-1.4,2.6c-0.2,0.7-0.2,1.5,0,2.3c0.4,0,0.8,0,1.2,0.2
		c0.3,0.1,0.6,0.3,0.9,0.5c-0.1-1,0.4-1.9,1.3-2.3 M126.5,71.8c0,1-0.2,2.1-0.7,3c-0.3,0.5-0.8,2.3-1,2.6 M122.1,67.9
		c-0.9,1.5-1.4,3.2-1.5,4.9c-0.1,1.1,0.1,2.1,0.4,3.1l1.8,0.5c-0.3-0.5-0.5-1.1-0.4-1.8c0.1-0.4,0.2-0.8,0.4-1.1 M118.3,72.1
		c0.3,0.8,0.9,3.8,1.2,4.6 M111.5,66c1.4,1.5,2.7,3.1,3.8,4.8c1.3,2,2.5,4.1,3.5,6.3 M110.6,69.7c0.4,0.7,1.4,1.9,2,2.7
		c1.7,1.8,3.6,3.4,5.7,4.7 M103,71.5c1.2,0.8,2.5,1.6,3.9,2.4c2.6,1.5,5.1,2.8,7.6,4c0.8-0.2,1.8-0.5,1.8-1c0-0.5-1.5-1.1-3.2-1.9
		c-2.1-0.9-4.1-2-6-3.3 M102.1,81.6c1.2-0.1,2.5-0.1,3.7,0c2,0.2,3.9,0.7,5.6,1.5c0.7-0.7,0.9-1.3,0.8-1.6c-0.3-2-6.6-2.6-8.8-2.8
		 M101,87.2c1.5,0.6,3,1,4.6,1.2c2.3,0.3,4.7,0.3,7.1-0.1 M107.6,85.2c0.8,0,1.6,0,2.3,0.1c0.9,0.3,1.7,0.7,2.6,1.1 M106.8,85.4
		c0.1-0.5-0.1-1.1-0.5-1.3c-0.4-0.2-0.8-0.2-1.2,0c-0.3,0.2-0.6,0.5-0.6,0.9c0,0.4,0.2,0.8,0.5,1c0.6,0.4,1.4,0.2,1.8-0.4
		C106.8,85.6,106.8,85.5,106.8,85.4L106.8,85.4z M113.4,103.1c0-0.3-0.8-0.5-0.9-0.8l0,0c-0.1-0.1-0.3,0.2-0.4,0.4s-0.3,0.5-0.1,0.8
		s0.5,0.3,0.7,0.3c0.2,0,0.4-0.1,0.6-0.2C113.2,103.5,113.4,103.3,113.4,103.1L113.4,103.1z M113.4,110c-0.4,0-0.8,0.1-1.2,0.2v1.2
		c0,0,1.2,0.5,1.6,0.1C114,110.9,113.9,110.3,113.4,110L113.4,110z M114.8,107.1c0.2-0.3,0.2-0.7,0.1-1.1c-0.2-0.4-0.5-0.7-0.9-0.8
		c-0.4-0.1-0.8-0.1-1.2,0l-0.6,0.9c0.3,0.5,0.8,0.9,1.3,1.2C114,107.6,114.5,107.5,114.8,107.1L114.8,107.1z M120.8,111.3
		c0.1,0,0.2-0.2,0.4-1.4c0.1-0.8,0.1-1,0-1.1s-0.7-0.1-1,0c-0.4,0.3-0.6,0.7-0.7,1.2c-0.1,0.4-0.1,0.8,0.1,1.1
		c0.3,0.4,0.9,0.5,1.3,0.2L120.8,111.3z M123.7,108.6c0.5-0.2,0.7-0.3,0.9-0.6s0.1-0.9-0.2-1.1s-0.7,0.2-1,0.5
		c-0.5,0.4-1,1.1-0.8,1.4s0.8,0,1.2-0.2L123.7,108.6z M126.7,110.9c0-0.3-0.3-0.6-0.3-1.1c0,0,0-0.1,0-0.1c-0.3-0.4-2.1,0.7-1.6,0.5
		c0,0-0.4,1.4,0,1.8s2-0.5,2-1.1L126.7,110.9z M131.4,112.7c0.3-0.4,0.3-0.9,0-1.3c-0.4-0.5-1.1-0.6-1.6-0.2c0,0,0,0-0.1,0.1
		c-0.2,0.4-0.2,0.9,0.2,1.3C130.3,113.1,131,113.2,131.4,112.7c0.1,0.1,0.1,0,0.1,0L131.4,112.7z M134.9,115
		c-0.5,0.1-1.1-0.3-1.1-0.7s0.4-0.6,0.8-0.7s0.9,0.1,1,0.4c0.1,0.4-0.2,0.8-0.6,1L134.9,115z M135.9,112.3c0.2-0.3,0.2-0.7,0-1
		c-0.3-0.3-0.7-0.4-1.1-0.2c-0.3,0.2-0.5,0.5-0.6,0.9c0,0,1.4,0.7,1.8,0.3L135.9,112.3z M135.6,109.2c0.1-0.3,0.1-0.7,0-1l-1.3-0.3
		c0,0-0.3,1.2,0.1,1.6C134.8,109.8,135.4,109.7,135.6,109.2c0.1,0,0.1,0,0.1,0L135.6,109.2z M139.2,107.5c0.4-0.4,0.1-1.1-0.1-1.4
		c0-0.1-0.5-0.7-1.1-0.6c-0.4,0.1-0.7,0.5-0.7,0.9c-0.1,0.5,0.2,0.9,0.6,1.2c0.4,0.3,1,0.3,1.4-0.1L139.2,107.5z M142,108
		c-0.3-0.2-0.6-0.7-0.5-1s1-0.5,1.5-0.2c0.3,0.2,0.6,0.6,0.5,0.9s-0.8,0.6-1.3,0.3L142,108z M142.1,105c0.3-0.1,0.7-0.3,0.8-0.6
		c0.1-0.5-0.8-1.3-0.8-1.3s-1.3-0.3-1.7,0.1s0.1,0.9,0.1,1c0.3,0.6,1,0.9,1.7,0.7L142.1,105z M144.3,101.1c0.6-0.3,0.8-1,0.4-1.6
		c0,0,0,0,0,0c-0.4-0.3-1-0.3-1.5,0c-0.1,0-0.6,0.4-0.6,0.8c0.2,0.7,0.8,1.1,1.5,0.9c0.1,0,0.2-0.1,0.3-0.1L144.3,101.1z
		 M141.7,96.9c0.5-0.3,0.7-1,0.4-1.6c-0.3-0.3-0.7-0.5-1.1-0.5c-0.3,0-1-0.1-1.3,0.3c-0.2,0.4-0.2,0.8,0.1,1.2c0.4,0.7,1.3,1,2,0.6
		c0,0,0,0,0,0L141.7,96.9z M140.2,75.4c-0.1-0.4-0.4-0.7-0.9-0.7c-0.3,0-0.5,0.4-0.6,0.5c-0.3,0.6-0.2,1.4,0.1,1.6s1.6-0.6,1.4-1.3
		L140.2,75.4z M141.1,81.3c0.2-0.3,0.2-0.7,0-1c-0.2-0.4-0.7-0.5-1.1-0.4c-0.3,0.1-0.4,0.4-0.5,0.7c-0.2,0.4-0.2,0.8,0,1.2
		c0.2,0.3,0.6,0.4,1,0.3c0.4-0.1,0.7-0.4,0.8-0.8L141.1,81.3z M144.6,85.9c0-0.2,0.1-0.7-0.3-1c-0.4-0.2-0.8-0.2-1.2,0.1
		c-0.7,0.5-0.7,1.8-0.2,2.1c0.3,0.2,0.9-0.1,1.1-0.3c0.4-0.2,0.6-0.6,0.7-1L144.6,85.9z M143.6,92.8c0.1-0.5-0.1-1-0.5-1.2
		c-0.3-0.1-0.7,0-1,0.2c-0.5,0.4-0.7,1.3-0.4,1.6s0.6,0.1,0.9,0s1-0.2,1.1-0.7L143.6,92.8z M145.6,96.6c-0.2-0.2-0.5-0.3-0.8-0.2
		c-0.3,0.1-0.6,0.4-0.6,0.7c0,0.3,0.1,0.6,0.4,0.8c0.2,0.2,0.7,0.7,1.1,0.5s0.3-0.6,0.3-0.9c0.1-0.3,0.1-0.7-0.1-1L145.6,96.6z
		 M145.7,90.6c0.1-0.2,0.1-0.5,0-0.8c-0.1-0.2-0.3-0.4-0.6-0.5c-0.3,0-0.6,0-0.8,0.2c-0.2,0.1-0.5,0.5-0.4,0.8
		c0.4,0.6,1.1,0.8,1.7,0.4c0.1-0.1,0.2-0.1,0.3-0.2L145.7,90.6z M145.8,84.5c0.3-0.1,0.3-0.9,0-1.2s-1.5,0-1.5,0s1.3,1.4,1.7,1.2
		L145.8,84.5z M143.1,78.7c0.3-0.1,0.5-0.3,0.6-0.6c0.1-0.4,0-0.8-0.3-1c-0.3-0.2-0.7-0.2-1,0c-0.3,0.1-0.5,0.3-0.5,0.6
		c-0.1,0.2-0.1,0.4,0,0.7c0.3,0.4,0.9,0.5,1.3,0.2L143.1,78.7z M138.5,72.1c0-0.4-0.3-0.6-0.6-0.7c-0.3,0-0.5,0.1-0.7,0.4
		c-0.2,0.2-0.3,0.5-0.2,0.8c0,0.4,0.4,0.7,0.8,0.6c0.1,0,0.3-0.1,0.4-0.2c0.4-0.1,0.6-0.5,0.6-0.9L138.5,72.1z M134.8,73.7
		c-0.1-0.4-0.5-0.5-0.6-0.6c-0.4-0.1-0.8-0.1-1.1,0c-0.4,0.2-0.7,0.5-0.9,0.9c-0.1,0.3-0.2,0.6-0.1,0.9c0.2,0.2,0.5,0.4,0.8,0.4
		c0.5,0,0.9-0.2,1.3-0.6c0.5-0.3,0.9-0.7,0.8-1.1L134.8,73.7z M127.7,69.1c-0.3-0.3-1-0.1-1.3,0c-0.3,0.1-0.6,0.4-0.8,0.7
		c-0.2,0.3-0.3,0.7-0.2,1c0.2,0.4,0.6,0.7,1,0.7c1.1-0.1,1.8-1.9,1.4-2.4L127.7,69.1z M131.6,69.5c-0.1,0-0.4,0.2-1,0.7
		c-0.6,0.5-0.6,0.5-0.6,0.6c-0.1,0.5,0.2,0.9,0.6,1.1c0.5,0.1,0.9-0.1,1.2-0.4c0.7-0.8,0.4-2,0-2.1L131.6,69.5z M123.2,66.3
		c-0.3-0.2-0.7-0.2-1,0c-0.2,0.1-0.6,0.3-0.7,0.7c0,0.4,0.2,0.7,0.6,0.9c0.4,0.2,0.9,0,1.2-0.4C123.5,67.2,123.5,66.7,123.2,66.3z
		 M122.9,71.1c0.4-0.5,0.5-0.6,0.6-0.6c0.3-0.2,0.6-0.2,0.9,0c0.2,0.2,0.4,0.5,0.3,0.8c0,0.6-0.3,1.1-0.7,1.4
		c-0.3,0.2-0.6,0.3-1,0.2c-0.4-0.2-0.6-0.6-0.6-1C122.4,71.7,122.6,71.5,122.9,71.1L122.9,71.1z M118.5,71.3c0.1-0.3,0.1-0.6,0-0.9
		c-0.2-0.3-0.5-0.5-0.9-0.5c-0.3,0-0.6,0.2-0.8,0.6c-0.1,0.2,0,0.3,0.3,1c0.3,0.7,0.2,0.8,0.4,0.9c0.3,0.2,0.7,0.1,0.9-0.2
		C118.4,72.1,118.4,72,118.5,71.3z M110.6,69.7c0.1-0.3-0.2-0.7-0.3-0.8c-0.3-0.3-0.7-0.5-1.2-0.4c-0.1,0-0.6,0.2-0.7,0.6
		c-0.1,0.4,0.3,0.7,0.6,0.9C109.6,70.3,110.4,70.1,110.6,69.7L110.6,69.7z M111.6,66c0.2-0.2,0.4-0.5,0.4-0.8c0-0.4-0.1-0.7-0.4-1
		c-0.2-0.2-0.5-0.3-0.8-0.3c-0.4,0-0.7,0.2-0.9,0.6c-0.3,0.6-0.1,1.4,0.5,1.8c0.3,0.1,0.7,0,1-0.2L111.6,66z M107.2,71.6
		c0.2-0.3,0-0.9-0.3-1.2c-0.5-0.5-1.5-0.5-1.7-0.1c0,0-0.1,0.1,0.1,1.1C107,71.8,107.1,71.6,107.2,71.6L107.2,71.6z M103.9,76.1
		c0.3-0.3,0.1-0.8,0.1-0.9c-0.1-0.4-0.4-0.8-0.9-1c-0.3-0.1-0.8-0.2-1.1,0.1c-0.1,0.2-0.2,0.5-0.1,0.7c0.1,0.3,0.2,0.6,0.5,0.8
		C102.8,76.1,103.5,76.4,103.9,76.1L103.9,76.1z M102.3,71.5c0.2-0.4,0.2-0.8-0.1-1.2c-0.2-0.3-0.5-0.6-0.9-0.6
		c-0.3,0-0.6,0.1-0.9,0.3c-0.3,0.2-0.6,0.3-0.6,0.6c0,0.3,0.3,0.4,0.4,0.6C100.8,71.6,101.9,72,102.3,71.5L102.3,71.5z M99.9,75.5
		c0.3-0.4,0.3-0.9,0-1.2c-0.3-0.3-0.6-0.4-1-0.5c-0.1,0-1.1-0.2-1.3,0.2c-0.1,0.2,0.1,0.4,0.2,0.6c0.2,0.3,0.5,0.6,0.9,0.8
		C99,75.6,99.5,75.8,99.9,75.5L99.9,75.5z M102.6,79.2c0.2-0.2,0-0.6-0.1-0.8c-0.3-0.3-0.7-0.5-1.1-0.5c-0.2,0-0.7,0-0.9,0.4
		c-0.1,0.3,0,0.5,0.1,0.8c0.2,0.2,0.5,0.3,0.9,0.3C102,79.4,102.4,79.4,102.6,79.2L102.6,79.2z M101.1,82.8c0.2-0.3,0.3-0.6,0.3-1
		c-0.1-0.5-0.5-0.9-1-1.1c-0.3-0.2-0.8-0.2-1.1-0.1c-0.3,0.2-0.6,0.5-0.6,0.9c0,0.9,0.7,1.6,1.6,1.7
		C100.5,83.2,100.8,83.1,101.1,82.8L101.1,82.8z M109.4,104.3L109.4,104.3c-0.5-0.1-0.9,0.1-1.3,0.4c-0.2,0.2-0.4,0.5-0.4,0.9
		c0,0.4,0.2,0.8,0.5,0.9c0.6,0.3,1.3-0.4,1.4-0.4c0.3-0.2,0.4-0.5,0.4-0.9c0-0.2-0.1-0.4-0.2-0.6c-0.1-0.1-0.2-0.2-0.4-0.3
		 M104.1,98.3c0.1-0.3,0-0.7-0.3-0.9c-0.2-0.2-0.5-0.3-0.9-0.3c-0.2,0-1-0.1-1.4,0.5c-0.1,0.3-0.2,0.6-0.1,0.9
		c0.1,0.4,0.4,0.7,0.7,0.9c0.4,0.1,0.9,0,1.3-0.3c0.3-0.2,0.6-0.5,0.6-0.8L104.1,98.3z M107,102.6c-0.3-0.4-0.9-0.2-1.3,0
		c-0.3,0.1-0.5,0.4-0.5,0.6c0,0.2,0,0.5,0.2,0.7c0.2,0.2,0.5,0.3,0.9,0.3c0.3-0.1,0.5-0.2,0.7-0.5c0.2-0.4,0.4-0.9,0.1-1.2V102.6z
		 M106.9,100c0-0.3-0.2-0.6-0.4-0.7c-0.5-0.3-1.1-0.3-1.5,0.1c-0.3,0.3-0.3,0.7-0.2,1.1c0.3,0.6,1,0.9,1.6,0.6c0,0,0,0,0.1,0
		c0.4-0.2,0.6-0.7,0.5-1.2V100z M100.4,87.3c0.2-0.6,0-1.2-0.5-1.6c-0.5-0.4-1.3-0.5-1.9-0.2c-0.4,0.2-0.6,0.5-0.8,0.9
		c-0.1,0.4,0,0.7,0.3,1c0.4,0.6,1.1,0.9,1.8,0.8C99.7,88.1,100.2,87.8,100.4,87.3z M100.6,91c0-0.3-0.1-0.6-0.3-0.8
		s-0.8,0.1-1.1,0.3s-0.9,0.5-0.9,1.1c0,0.4,0.2,0.8,0.5,1c0.6,0.2,1.3,0,1.6-0.6C100.6,91.7,100.7,91.4,100.6,91z M105.9,94
		c-0.2-0.2-0.6-0.1-1.4,0.1s-1.1,0.3-1.3,0.5c-0.2,0.3-0.2,0.7,0,1c0.3,0.4,0.9,0.4,1.2,0.4c0.5,0,1-0.2,1.4-0.6
		C106.1,95,106.2,94.3,105.9,94L105.9,94z M127.5,84.1c-0.5,0-0.8,0.4-1,0.8c-0.2,0.3-0.4,0.6-0.3,1c0.1,0.3,0.3,0.5,0.5,0.6
		c0.5,0.2,1.1-0.3,1.4-0.8c0.2-0.3,0.2-0.6,0.1-0.9C128.2,84.4,127.9,84.2,127.5,84.1z M126.8,86.5c-0.2,0.8-0.8,2.6-1.2,4.2
		c-0.8,3.4-0.9,3.4-1.1,4.8c-0.1,1.5-0.3,3-0.6,4.4c-0.5,1.3-1.1,2.5-1.7,3.8 M130.1,102.4c0.1-1.6-0.2-3.2-0.8-4.7
		c-0.4-0.9-0.8-1-1.1-1.9c-0.4-1-0.5-2.1-0.5-3.2c0.1-2.2,0-4.3-0.1-6.5 M132.4,99.2c0-1.2-0.2-2.3-0.4-3.5
		c-0.3-1.4-0.8-2.7-1.5-3.9c-0.4-1.1-0.9-2.2-1.5-3.2c-0.4-0.6-0.8-1.2-1.3-1.8 M135.5,97.2c-0.2-1.3-0.6-2.5-1.1-3.7
		c-0.9-1.7-2.1-3.2-3.5-4.5c-0.9-1.1-1.8-2.2-2.8-3.2 M137.8,94.6c-0.9-1.3-1.9-2.6-3-3.8c-0.7-0.9-1.4-1.6-2.2-2.3
		c-1.1-1-2.4-1.8-3.7-2.5 M139.1,90.8c-1.4-1.2-2.9-2.2-4.6-3c-0.5-0.3-0.8-0.4-2.6-1.2c-1.1-0.6-2.7-1.1-3.4-1.4 M139.1,86
		c-0.9-1.1-2.1-1.9-3.4-2.6c-1-0.3-2.1-0.3-3.2-0.1c-1.4,0.4-2.8,1-4,1.8 M135.7,79.8c-1.5,0.3-2.9,0.8-4.2,1.5
		c-1.2,1-2.2,2.1-3.1,3.4 M129.5,78.7c-0.4,0.8-0.8,1.6-1,2.4c-0.4,0.9-0.7,1.9-0.9,2.9 M127.6,84c-0.4-0.9-1-2.2-1.3-2.7
		c-0.5-0.8-1.1-1.4-1.7-2c-0.7-0.6-1.5-1.2-2.3-1.6 M126.8,84.3c-0.7-1.2-1.8-2.2-3-2.9c-1-0.4-1.6-0.4-2.9-0.8
		c-1.3-0.5-3-0.9-3.6-1.4 M126.6,84.9c-0.6-0.3-2-1.7-3.3-1.9c-1.2-0.1-2.5,0-3.6,0.5c-2,0.7-2.1,1.5-3.2,1.4
		c-0.8-0.2-1.5-0.2-2.3-0.1c-0.3,0.1-1.3,0.2-1.5,0.2 M126,85.4c-0.3,0.4-1.2,1.9-1.8,2.6c-1.4,1.7-2.1,2.2-2.6,3.5
		c-0.2,0.7-0.3,1.5-0.2,2.3c0.1,1.8-0.4,5.2-0.7,9.2 M126.6,84.9c-1.4-0.4-2.9-0.3-4.3,0.3c-1.4,1-1.4,2.7-3.2,3.5
		c-0.8,0.4-1,0.1-1.9,0.4c-1.1,0.3-3.5,3-4.7,5.8 M74.2,142.6c0.5,0.3,3,1.5,3.7,2.5c0.8,1.5,1.3,3.1,1.5,4.7 M76.3,141.6
		c0.9,1.1,2,2,3.2,2.8c1.9,1.1,5.3,0,5.5-0.1 M62.9,161.5c0.5,1.1,0.9,2.3,1.1,3.5c0.2,1.7,0.2,3.3,0.1,5 M70.7,156.3
		c1.2,0.8,2.4,1.8,3.5,2.9c1,1.3,2.8,3.3,3,4.2 M69.9,157.9c0.3,1.3,0.8,2.5,1.6,3.6c1.1,1.8,4.1,3,4.6,3.1 M60.5,162.1
		c0.4,1.2,0.6,2.4,0.8,3.6c-0.1,0.8-0.1,1.6,0.1,2.4c0.2,0.9,0.6,1.8,1,2.6 M93,122c0.1,1.2,0.3,2.4,0.7,3.5
		c0.2,0.3,0.4,0.6,0.6,0.9c1,1.2,1.7,1.3,2.4,2.1c0.4,0.5,0.6,1.2,0.6,1.8c0.3,1.7-0.5,2.1-0.3,4.4c0.2,1.1-0.3,2.2-1.1,2.8
		c-1,1.1-0.4,2.6-0.5,5.4c0,1.3-0.2,2.6-0.7,3.9c-0.9,2.2-2.7,3.4-4.8,4.8c-1.9,1.3-2.1,1.1-3.7,2.1c-0.9,0.6-2.3,1.6-6.9,7.1
		c-3.3,3.9-3.2,4.2-4.4,4.9c-2.3,1.5-3.1,0.7-7,2.3c-3.7,1.5-3.5,2.4-6.3,3c-1.9,0.3-3.8,0.5-5.7,0.5c-0.4,0-1.9,0.1-3.9,0.1
		c-1.6,0-4.1-0.1-5.2-0.1 M93,122.1c-1.1-0.1-2.2-0.1-3.3,0.2c-1.1,0.5-1.3,1.2-2.4,1.6s-1.1-0.1-2.8,0.2c-1.3,0.1-2.5,0.5-3.7,1.2
		c-0.6,0.4-1.2,0.6-1.9,0.7h-0.3c-1,0-1.4-0.6-1.6-0.4s0.1,0.6,0.5,1c0.5,0.4,1.2,0.6,1.9,0.6c1.6,0.1,0.9,0.2,2.6,0.4
		c1.8,0.2,3.5,0.2,5.3,0c0.7-0.1,1.5-0.3,2.2-0.5 M87.7,109.7c-0.8,1-1.6,1.9-2.7,2.6c-1.2,1.1-2.7,1.9-4.2,2.3
		c-0.7,0.1-1.3,0.3-1.8,0.8c-0.4,0.4-0.6,1-0.8,1.5c-0.4,0.8-0.9,1.6-1.5,2.2c0.8-0.5,1.6-0.9,2.4-1.3c1.4-0.6,4.8-2.1,7.8-1.9
		c0.9,0.1,1.8,0,2.6-0.3c0.5-0.2,2.1-0.6,2.3-0.8 M87,136.9c-0.8-0.2-1.5-0.5-2.3-0.9c-0.9-0.6-1.8-1.2-2.7-1.8
		c-2.5-1.4-5.7,0.5-5.8,0.2s5.1-2.7,7.4-2.1c0.4,0.1,0.8,0.2,1.2,0.4c1,0.4,1.3,0.7,2,1c0.6,0.2,1.3,0.3,1.9,0.2 M75.6,106.3
		c0,0.8,0,1.7,0.2,2.5c0.3,3.3,0.4,6.6,0.2,9.9c0,0.3,0,0.7,0.1,1c0.3,1,1.1,1.1,1.3,1.8s-0.4,1.1-0.8,2.6c-0.2,0.8-0.3,1.6-0.3,2.4
		c0,0-0.1,2.5-0.5,6.6c-0.1,1-0.2,3.2-0.5,4.9 M72.7,145.4c-1.3,0.1-2.6-0.3-3.7-0.9c-0.9-0.8-0.7-1.6-1.7-2.1s-1.6-0.1-2.7-0.8
		c-0.4-0.2-0.7-0.6-0.9-0.9 M74.7,137.5c-1.3,0.3-2.7,0.4-4,0.3c-1.2-0.1-2.4-0.4-3.6-0.9c-0.8-0.3-1.6-0.8-2.4-1.3 M74.9,131.8
		c-1.2,0.3-2.4,0.5-3.6,0.7c-1.7,0.1-3.8,0.6-4.8,0.4 M74.6,128.5c-1.3-0.2-2.5-0.2-3.8-0.1c-1.1,0.2-2.2,0.4-3.3,0.8
		c-1.1,0.4-2,1.3-2.8,1.6 M75.4,123.7c-0.7,0-1.4,0.2-2.1,0.5c-1,0.5-0.9,0.9-2.2,1.8c-0.8,0.5-1.6,0.9-2.5,1.1
		c-0.3,0.1-1.3,0.1-1.5,0.1 M75.6,120.8c-1.1,1-2,1.8-2.7,2.3c-0.5,0.4-0.9,0.7-1.4,1c-1.5,0.8-2.3,0.4-2.9,1.2
		c-0.5,0.6-0.2,0.9-0.8,1.5s-1.5,0.5-2.4,0.8c-1.4,0.3-2.7,1.2-3.4,2.5 M71,110.3c-0.4,0.8-0.7,1.6-1,2.5c-0.4,1-0.9,2.3-1.2,3
		c-1,1.8-2.3,3.5-3.9,4.9 M69.8,109.9c-0.3,0.6-0.5,1.3-0.7,2c-0.2,1-0.5,1.9-0.9,2.9c-0.7,1.1-1.6,2.1-2.5,3 M73.5,118.9
		c-1.3,0-2.6,0.2-3.9,0.6c-0.7,0.4-1.5,0.8-2.2,1.1c-1,0.3-2.1,0.3-3.1,0 M67,108.7c-0.2,0.4-0.4,0.9-0.6,1.3
		c-0.9,3,0.8,3.8-0.1,6.5c-0.2,0.7-0.4,0.9-2.6,4.1c-1.2,1.7-3.3,3.6-3.9,4.4 M63.9,107c-0.4,0.4-1.5,0.4-2.4,0.6
		c-0.9,0.4-1.6,1.3-1.9,2.2c-0.4,0.9-0.2,1.4-0.3,3c-0.1,1.4-0.3,2.8-0.7,4.2c-0.5,1.7-1,3.4-1.7,5 M56.5,99.2
		c-0.2,0.7-0.3,1.5-0.4,2.3c-0.1,1.2-0.2,2.4-0.2,3.7c-0.1,3.1,0,5.2,0.1,8c0,1.7,0.1,4.3,0.1,7.5 M53.7,99.6c0.1,0.3,0.3,1,0.3,1.2
		c0.6,2.4,0.9,4.9,1,7.4c0.2,3.1,1.3,11.8,0.9,13.8 M50.6,100.7c0.4,1.1,0.9,2.2,1.4,3.2c1.1,2.3,1.4,2.6,1.8,3.5
		c0.5,1.6,0.6,3.2,0.4,4.8c-0.1,3.1,0,6.3,0.3,9.4 M74.3,109.3c0.1,0.5,0.1,1,0,1.5 M74.3,110.8c0,0.1,0,0.2-0.1,0.4
		c-0.3,2-0.5,3.2-0.6,4.5c-0.2,1.8-0.3,2.7,0,3.2c0.6,1,1.7,0.7,2.8,2c0.3,0.4,0.9,1.1,0.7,1.7s-1.1,0.6-1.3,1.4
		c-0.2,0.5,0.2,0.7,0.1,1.4c0,0.5-0.3,0.7-0.6,1.4c-0.4,0.7-0.7,1.6-0.8,2.4c0,0.7,0,1.4,0.3,2c0.3,0.8,0.5,1,0.4,1.4
		s-0.6,0.5-1.2,1.3c-0.4,0.6-0.7,1.3-0.6,2c0.1,0.3,0.2,0.4,1.3,1.6c0.6,0.5,1.1,1.1,1.5,1.8c0.3,0.6,0.7,1.2,0.5,1.7
		c-0.3,0.7-1.2,0.5-2.5,1.5c-0.7,0.4-1.2,1.1-1.5,1.9c-0.2,0.8,0.2,0.9,0.3,2.2c0.1,0.9-0.1,1.9-0.5,2.8c-0.4,0.8-0.7,0.7-1.1,1.5
		c-0.8,1.6-0.3,3.1-0.6,3.2s-0.7-1.1-1.2-2.3c-0.8-1.7-1.8-3.3-3-4.7c-1.1-1.3-2.3-2.5-3.6-3.5 M57.7,148.5c0.5,1,0.9,2,1.1,3.1
		c0.5,2.6-0.2,4.1,0.5,6.9c0.2,0.9,1.8,2.8,2,3.2 M58.9,146.7c0.8,1.1,1.4,2.3,1.8,3.6c0.4,1.7,0.2,2.6,0.4,4.6
		c0.1,1.1,1.5,3.9,2.2,5.9 M61.3,146c1.2,1.2,2,2.7,2.3,4.4c0.3,1.6-0.2,2.4,0.2,3.8c0.3,1.1,2.3,3,4.6,4.6 M49.7,167.9
		c-0.4-1.1-0.6-2.3-0.6-3.4c0.2-1.7,0.6-3.4,1.3-4.9c0.9-2.4,1-2.4,1.1-3.2c0.1-1.3-0.2-2-0.1-3.8c0.1-0.7,0.2-1.4,0.4-2.1
		 M44.3,168.4c0.1-1,0.4-2,0.7-3c0.9-1.9,1.6-2.2,2.3-3.6s0.2-1.6,1.1-4.2c0.5-1.5,0.8-1.8,1.4-3.4c0.5-1.3,0.8-2.6,1.1-3.9
		 M46,145.2c-0.6,1.1-1.4,2.1-2.4,2.9c-0.6,0.5-1,0.7-4.1,2.1c-1.3,0.5-2.6,1.1-3.7,1.9c-1,0.6-1.8,1.5-2.3,2.5
		c-0.6,1.2-0.3,1.7-1.1,2.6s-1,0.5-2,1.4c-0.7,0.7-1.2,1.5-1.5,2.4c-0.4,1-0.2,1.3-0.5,2.1c-0.4,1.2-1.2,2.3-2.2,3.2 M44,141.8
		c-0.5-0.1-1,0-1.4,0.2c-0.6,0.3-0.7,0.8-1.3,1.5c-0.4,0.5-0.9,0.9-1.4,1.3c-1.3,0.7-1.9-0.2-3.4,0.4c-0.7,0.4-1.4,0.9-1.9,1.6
		c-1,1-1.1,1.4-1.7,1.9c-1.4,1-3.1,1.6-4.9,1.6 M43.2,129.7c-1.7,0.5-3.6,0.5-5.3,0.1c-2-0.5-2.8-1.3-4.8-1.3
		c-1.7,0-1.8,0.6-3.6,0.8c-2.8,0.4-4-0.7-7.7-1.1c-2-0.2-4.1-0.2-6.2-0.1 M35.1,105.5c0.5,0.9,5.1,8.7,5.9,10.1
		c0.8,1.5,1.7,2.9,2.6,4.2c1.8,2.1,3,2.2,4.3,4.1c0.8,1.2,1.4,2.6,1.6,4.1 M28.5,106.4c2,1.1,7.3,9,7.5,9.5c0.6,1.3,0.4,1.5,1,2.3
		c0.7,0.9,1.6,1.3,3.2,1.8c1.1,0.4,3.6,1.1,5.8,1.9 M4.7,121.4c0.7,0,1.3,0.2,1.9,0.5c0.7,0.3,0.9,0.9,1.5,1.4
		c0.6,0.5,1.4,0.8,2.2,0.9c2.1,0.3,4.3-1.6,4.6-1.9 M7.4,118.3c0.4,0.5,0.9,1,1.4,1.4c1.8,0.8,3.8,0.9,5.7,0.4 M7.5,115.5
		c1,0,1.9,0.2,2.8,0.4c1.6,0.6,3,1.6,4.1,2.9 M13,106C13.5,106,12.5,105.9,13,106c1.3,0.3,5.6,1.2,6.2,1.7 M36.6,94.9
		c1.2,0.6,3.2,1.3,4.6,1.9c1.7,0.7,4.2,1.9,5.7,2.4 M39.4,91c1.3,0.7,3.3,1.5,4.5,2.2c1.5,0.8,3.6,2.4,5.1,3.2 M41.7,87.1
		c1.1,0.7,2.7,1.6,3.8,2.4c1.5,1.1,3.9,2.2,5.2,3.3 M42.8,83c1.1,0.6,2.2,1.3,3.3,2c1.9,1.5,3.6,3.2,5.1,5.1 M33,98.3
		c1.6,0.9,3.2,1.6,4.9,2.2c1.8,0.6,3.7,1,5.5,1.3 M44,78.5c0.8,0.7,2.1,1.7,2.9,2.6c1.4,1.7,2.8,3.5,4,5.4 M28.5,102.5
		c0.9,0.2,2.9,0.6,3.8,0.8c1.7,0.4,4.9,1,6.4,1.2 M44.7,73.2c0.6,0.7,1.8,2,2.4,2.9c0.9,1.2,2.4,2.5,3,3.5 M42.3,61.1
		c1.2,1.8,4.3,6,5.6,9.4c1.5,4,2.4,8.2,2.6,12.4c0.6,6.1,0.9,9.2-0.6,12.3c-1.1,2.1-2.7,4-4.6,5.4c-4.1,3.2-9,5.3-14.2,5.9
		c-2.7,0.4-7.8,0-13-1 M15.5,89c1-0.6,2.4,0.4,3,0.8c0.9,0.5,1.6,1.3,2,2.2c0.5,0.8,0.6,1.7,0.4,2.6c-0.3,0.8-0.9,1.4-1.6,1.8
		c-1,0.7-1.8,1.3-2.7,1.1c-1.6-0.3-2.3-2.3-2.4-2.6c-0.5-1.4-0.1-2.7,0.4-4.1C14.9,89.8,15.1,89.3,15.5,89z M25.5,94.8
		c0.7,0,1.3,0.3,1.8,0.9c0.4,0.4,0.6,1,0.6,1.6c0.1,0.7,0,1.3-0.4,1.9c-0.7,0.8-2.1,0.5-2.8,0.2c-0.3-0.1-1.8-0.8-1.8-2.1
		C23,95.8,24.2,94.7,25.5,94.8L25.5,94.8z M35.3,84.3c1-0.1,1.7,1.2,1.9,1.4c0.4,0.7,0.6,1.5,0.4,2.3c-0.2,1-0.9,1.9-1.8,2.5
		c-0.7,0.5-1.5,1.1-2.3,0.8s-1.2-1.6-1.2-2.4c0.1-1,0.5-1.9,1.1-2.6C34.2,85.1,34.6,84.3,35.3,84.3z M27.1,85.2
		c0.8-0.4,1.8-0.6,2.7-0.4c0.5,0.1,0.9,0.4,1.3,0.8c0.4,0.7,0.5,1.6,0.1,2.4c-0.3,1.1-1,2-1.9,2.7c-1,1-2.2,1.6-3.6,1.6
		c-1.1,0-3.1-0.4-3.6-1.8c-0.2-0.9,0-1.9,0.6-2.7C23.5,86.6,24.7,86.1,27.1,85.2L27.1,85.2z M22,78.7c1.1,0.1,2,0.8,2.3,1.8
		c0.2,0.8,0,1.7-0.5,2.3c-0.4,0.8-1.2,1.3-2,1.6c-0.3,0.1-1.6,0.5-2.2-0.2s-0.2-2.1,0.1-2.8C19.9,80.5,20.6,78.7,22,78.7L22,78.7z
		 M14,77.7c0.8-0.3,1.7-0.4,2.5-0.1c0.5,0.2,1,0.5,1.3,1c0.4,0.8,0.5,1.7,0.2,2.5c-0.1,0.9-0.4,1.8-0.9,2.5
		c-0.6,0.8-1.4,1.3-2.3,1.5c-0.9,0.3-1.8,0.1-2.6-0.4c-0.6-0.7-0.8-1.6-0.6-2.5C11.7,81.7,11.9,78.7,14,77.7L14,77.7z M27.2,77.3
		c0.9-0.3,1.9,0,2.7,0.6c0.5,0.4,1,1,1.2,1.6c0.3,0.7,0.4,1.4,0.2,2.1c-0.4,0.8-1.3,1.3-2.2,1.4c-1,0-2-0.4-2.6-1.1
		c-0.7-0.6-1-1.4-1-2.3C25.7,78.5,26.3,77.6,27.2,77.3L27.2,77.3z M38.8,72.3c0.2,0.1,0.4,0.2,0.6,0.4c0.4,1.4-0.1,1,0.3,3
		c0.3,1,0.3,2,0.1,3c-0.3,0.9-0.8,1.7-1.5,2.2c-0.5,0.5-1.3,0.8-2,0.8c-1.4-0.3-1.9-2.3-1.9-2.5c-0.2-1.1,0-2.1,0.5-3.1
		c0.4-0.8,0.9-1.6,1.5-2.3C37.1,73,38.5,72,38.8,72.3L38.8,72.3z M35.3,67c0.6,0.4,0.4,1.4,0.4,2.1c-0.2,1.3-0.7,2.5-1.6,3.4
		c-0.6,0.8-1.4,1.4-2.3,1.8c-0.3,0.1-2.2,0.7-3.1-0.5c-0.5-0.8-0.6-1.8-0.1-2.7c0.4-0.6,0.7-0.5,1.8-1.3c1.5-1.1,1.4-1.7,2.6-2.4
		C33.5,67.2,34.6,66.6,35.3,67L35.3,67z M20.3,66.3c1.1,0,2.2,0.4,3,1.1c0.8,0.6,1.3,1.5,1.4,2.6c-0.1,1-0.5,1.9-1.3,2.6
		c-1.2,1.1-2.6,1.8-4.2,1.9c-1.1,0.3-2.2,0.2-3.3-0.1c-0.9-0.2-1.6-0.8-2.1-1.5c-0.4-1.1,0.4-2.3,1.2-3.6c0.5-1,1.3-1.8,2.3-2.3
		C18.2,66.5,19.3,66.3,20.3,66.3L20.3,66.3z M34.3,58.9c0.6,0.8-0.2,2.4-0.8,3.5c-0.4,0.9-1,1.6-1.7,2.3c-0.9,0.8-1.8,1.6-2.9,1.4
		c-1.1-0.2-2-1-2.3-2.1c-0.3-1.4,0.9-2.7,2-3.6c1-1,2.3-1.7,3.6-1.9C32.9,58.5,33.9,58.3,34.3,58.9L34.3,58.9z M37.1,56.2
		c4.7,1.8,6.3,7.3,6.8,8.9c0.6,2.2,0.8,4.5,0.6,6.8c0,3.1-0.5,6.3-1.2,9.3c-0.8,3.7-2.3,7.2-4.4,10.4c-1.3,1.8-2.7,3.4-4.3,5
		c-1,1-1.9,1.9-3.7,3.6c-2.1,2.1-3.2,3.1-3.7,3.4c-2.3,1.5-4.9,2.2-7.6,2c-5.5-0.4-8.7-5-9.3-6c-1.9-2.9-2-6-2.3-12.2
		c-0.2-5.6-0.4-9,1-13.5c0.9-2.8,2.3-7.3,6.3-10.2c0.4-0.3,1.6-0.9,4-2.3c3-1.7,4.5-2.5,6.6-3.5c3.3-1.6,5-2.3,7.2-2.4
		C34.4,55.5,35.8,55.7,37.1,56.2L37.1,56.2z M5.6,148.8c-1,0.7,2.2-1.4,3.1-1.7c1.8-0.6,2.9-0.3,5.8-0.2s3-0.2,6.2-0.1
		c1.1,0,2.2,0.1,3.5,0.3s1.7,0.3,2.4,0.3c2.1-0.1,4.2-0.6,6.1-1.4 M45.2,172.1c1.1-0.5,10,0.8,10.7,0.7c1.2-0.2,1.7,0,2.9-0.2
		c0.9-0.2,1.7-0.5,2.5-0.9c1.7-0.7,3.5-1.3,5.3-1.6c2.9-0.9,6.2-1.9,9.1-4.4c1.8-1.5,1.2-1.7,3.8-4.4c1.7-1.7,3.6-3.2,5.5-4.6
		c4.4-3.3,4.1-2.6,5.6-3.9s5.8-5.3,5.8-10.1c0-1.5-0.4-2.6,0.3-4.2c0.4-1,1.4-1.4,1.8-3.4c0.1-0.4,0.1-0.7,0.1-1.1 M98.6,134
		c0-1.3-0.2-2.6-0.6-3.9 M98,130.2c-1.4-4.4-4.7-8.6-4.6-8.9 M15.6,104.5c-2.9-1.3-2.3,1.2-2.7,1.5c-0.8,0.6-1,2.9-1.6,4
		c-0.9,1.6-1.4,1.3-2.8,3.3c-0.6,0.8-1.1,1.7-1.3,2.7c-0.2,0.8-0.2,1.6,0,2.4c-0.6,0.3-1.2,0.7-1.6,1.2c-0.5,0.6-0.8,1.3-1,2.1
		c-0.4,1.5-0.7,3-0.8,4.5c-0.1,0.6-0.2,1.8-0.4,3.2c-0.5,0.4-1,0.9-1.3,1.4c-0.3,0.6-0.5,1.2-0.5,1.9c-0.1,1.4,0.3,1.6,0,2.4
		s-0.9,0.9-1.1,1.8c-0.1,0.5,0,1.1,0.2,1.6c0.3,0.9,0.7,1.7,1.2,2.5c0.6,1.4,0.1,2.2,0.2,3.5c0.2,1.1,0.8,2.7,3.4,4.4
		c-0.1,1.4,0,2.8,0.3,4.2c0.4,1.7,0.8,2,1,3.4c0.2,2.1-0.6,2.5-0.1,3.7s1.1,0.9,3,2.6s2.3,3.2,3.9,3.6c0.8,0.2,0.9,0,1.6,0.3
		c1.3,0.5,1.3,1.5,2.5,2.6s1.6,0.5,4,2c1.5,0.9,1.5,1.3,2.6,1.7c1.1,0.3,2.1,0.5,3.3,0.5c1.3,0.1,2.7,0.3,4,0.6
		c1.9,0.5,1.6,0.8,2.8,1s2.1-0.1,5.9-1.1c2.7-0.7,2.4-0.6,3-0.8c1.8-0.6,5.2-2.8,8.3-5.6 M42.8,141.6c-1.5-0.3-3-0.2-4.4,0.3
		c-1.4,0.5-2.5,1.4-4.8,3.3c-0.7,0.7-1.5,1.3-2.4,1.9c-1.2,0.7-1.8,0.7-2.4,1.4c-0.7,0.9-0.3,1.6-0.9,2c-1,0.6-2.4-1-3.6-0.4
		c-0.8,0.4-0.5,1.2-1.4,1.8c-1.1,0.8-2.3-0.3-3.3,0.2c-1.6,0.7-1.7,3.9-1.5,5.6c0.3,3.8,2.8,7.9,6,8.6c0.8,0.1,1.7,0.2,2.5,0.3
		c2.6,0.2,3.4,0,4.9,0.3c1,0.3,1.9,0.6,2.8,1.1c4.8,1.9,5.1,2,5.6,1.9c1.6-0.1,1.8-1,4.3-1.3c0.8-0.1,0.8,0,2.3-0.2
		c1.4,0,2.8-0.2,4.2-0.5c2.2-0.6,2.4-1.7,5.2-3.5c1.4-0.9,2.9-1.6,4.5-2.2c4.3-1.8,8.4-2.7,9.4-4.2c0.4-0.9,0.8-1.8,1-2.7l0,0
		c0-0.3-0.1-0.6,0.1-0.7s0.4,0.8,0.9,1.1c0.8,0.4,1.8,0.3,2.6-0.1c2.8-1.1,4.6-4.9,4.9-5.6c0.1-0.4,0.4-0.7,0.6-0.9
		c0.7-0.6,1.4-0.5,2.2-0.8c0.3-0.1,0.8-0.4,1.8-1.9c0.9-1.4,1.6-3,2.1-4.6c0.8-2.6,0.6-3.7,1.6-4.4c0.6-0.4,1.1-0.4,1.5-1
		s-0.1-1.3,0.4-2.3c0.1-0.2,0.2-0.3,1.7-1.8c1-1,1.2-1.2,1.2-1.5c0-0.6-0.2-1.2-0.6-1.7c-0.5-0.7-0.8-0.7-1.2-1.4
		c-0.3-0.4-0.4-0.8-0.5-1.2c-0.1-0.7,0.3-1.3,2.1-3.4c1.1-1.3,1.1-1.4,1.2-1.6c0.3-1-0.3-1.6-1.1-3.9c-0.6-1.3-1-2.7-1.1-4.1
		 M20.8,105.9c-0.2,0.7-4,5.2-4.3,6.1c-0.3,0.8-0.6,1.6-1,2.4c-0.4,0.9-0.8,1.8-1.1,2.8c-0.2,1-0.2,2-0.1,3c0.1,1.7,0.4,1.9,0.9,5.2
		c0.4,2.2,0.3,2.5,0.3,2.9c-0.2,0.5-0.2,1-0.1,1.5c0.2,0.4,0.6,0.7,1.1,0.9c2.1,1.1,1.1,0.8,3.1,1.8c1.1,0.5,2.1,0.9,3.3,1.3
		c2.3,0.7,4.7,1,7.1,1c2.6,0,3-0.3,6.8-0.4c2-0.1,4,0.3,5.9,1.1 M50.7,135.2c0.2,0.6,0.6,1.2,1.1,1.6c0.7,0.6,1.5,1,2.4,1.1
		c1,0.2,2.1,0,3-0.6c0.6-0.5,1-1.3,1.2-2.1 M53.6,130.3c-0.2,0-0.8,0.1-0.8,0.1c-0.2,0.3-0.3,0.6-0.3,1c0,0.4,0.3,0.7,0.7,0.9
		c0.3,0.1,0.6-0.1,1.2-0.5s1.1-0.7,1-1s-0.8-0.7-1.5-0.6L53.6,130.3z"/>
	<path class="st0" d="M196,31.7c0,0-4.3,7.5-5.2,9 M104.5,138.1c0.1-0.3,0.3-0.5,0.4-0.7c1-0.8,1.1-0.7,1.4-0.8c0.4,0,0.7,0.1,1,0.3
		c0.3,0.2,0.5,0.5,0.7,0.8 M107.5,137c1.1-1,1.9-2.3,2.5-3.6c0.7-1.8,0.8-3.9,0.4-5.8c-0.3-1.6-0.8-3.1-1.6-4.5
		c-0.6-1.1-2.4-4.4-3-5 M106.6,136.7c0.3-2,0.4-3.7,0.4-4.9c0.1-2.8,0-5.5-0.3-8.2c-0.1-1.5-0.9-4.7-0.9-5.5 M105.9,136.6
		c-1-1.6-1.7-3.3-2-5.2c-0.3-2.3,0.1-4.1,0.8-7.4c0.4-1.9,0.7-4.9,1.1-5.9 M105,137.3c-1-0.5-1.8-1.2-2.5-2
		c-1.1-1.5-1.6-3.3-1.6-5.1c0-2.5,0.9-4.4,2.4-7.6c0.7-1.4,1.9-3.9,2.4-4.7 M106,138.2c1.5-0.2,2.9-0.7,4.2-1.6
		c1.8-1.2,3.2-3,3.9-5.1c0.7-2,0.7-4.2,0-6.2c-0.2-0.4-1.6-4.1-4.3-4.6c-0.9-0.1-1.8-0.5-2.6-1.1c-0.4-0.2-0.7-0.6-0.9-1 M106,138.1
		c-1.4-0.1-2.8-0.5-4.1-1.1c-0.9-0.5-3.7-1.9-4.4-4.8c-0.7-2.6,0.6-4.9,1.4-6.3c0.5-0.9,0.9-1.3,4-4.8c1-1,2-2,2.8-3.1 M121.4,137.6
		c0.6-0.6,1.3-1.2,2-1.7c1.1-0.6,2.2-1.2,3.4-1.7 M121.6,138.1c0.9,0,1.9,0,2.8-0.1c1.2-0.1,2.4-0.3,3.6-0.5 M121.2,138.5l2.2,1.4
		c1,0.6,2.7,1.1,3.7,1.8 M120.8,137.1c0.1-0.4,0.3-0.9,0.5-1.3c0.5-1.5,1.2-3,2-4.5 M120.3,136.3c-0.2-0.6-0.3-1.3-0.3-1.9
		c0-1.1,0-2.2,0.2-3.2 M117.4,131.4c0.3,0.6,0.7,2.1,1.1,2.8c0.6,0.9,1.2,1.8,1.9,2.6 M114.6,133c0.6,0.6,2.3,1.6,3,2.3
		s1.7,1.4,2.5,1.9 M113.7,135.3c0.8,0.3,2,0.6,2.9,0.9c1.1,0.4,2.2,0.7,3.2,1 M113.6,138.3c0.7-0.2,1.9-0.4,2.7-0.5
		c1.2-0.2,2.4-0.3,3.6-0.2 M114.6,140.5c0.6-0.4,2-0.5,2.6-0.9l2.7-1.7 M116.9,143.8c0.3-0.7,0.8-2.2,1.2-3s1-1.7,1.5-2.4
		 M121.1,138.5c0.1,0.8,0.3,1.6,0.5,2.4c0.7,1.3,2.6,2.6,3.3,3.4 M120.3,138.7c-0.1,0.9,0,1.7,0.2,2.6c0.2,0.6,0.4,1.2,0.7,1.7
		c0.4,0.8,0.9,1.6,1.4,2.3 M120.1,138.3c-0.5,1.1-0.8,2.3-1.1,3.4c-0.2,0.8-0.1,2.5-0.2,3.3 M124.9,144.4c-1.5,1-3.3,1.4-5.1,1
		c-3.1-0.7-4.5-3.5-5.3-4.8c-0.9-1.4-1.3-3-1.1-4.7c0.6-2.9,3.5-4.3,3.9-4.4c3.4-1.5,8.1,0,9.8,3.3c0.8,1.8,0.9,3.9,0.3,5.8
		C127.1,142.1,126.2,143.5,124.9,144.4 M41.6,51.3c5.4,9.7,9.8,19.9,13,30.6 M42.8,50.5c-0.2-0.1-0.5-0.2-0.8-0.3
		c-1.3-0.1-1.3,0.1-1.6,0.2c-0.3,0.2-0.5,0.5-0.6,0.9c-0.1,0.3-0.1,0.7-0.1,1 M39.7,51.4c-1.5-0.2-2.9-0.6-4.2-1.3
		c-1.7-1.1-3-2.6-3.8-4.4c-0.7-1.4-1.2-3-1.4-4.6c-0.2-1.3-0.7-5-0.6-5.8 M40.3,50.7c-1.4-1.4-2.5-2.7-3.3-3.6
		c-1.7-2.1-3.3-4.4-4.7-6.8c-0.8-1.3-2.2-4.3-2.6-5 M40.8,50.1c-0.1-1.9-0.6-3.7-1.5-5.3c-1.1-2-2.6-3.3-5.1-5.4
		c-1.4-1.2-3.6-3.5-4.4-4.1 M42,50.2c0.5-1,0.7-2,0.8-3.1c0-1.8-0.7-3.6-1.8-5c-1.5-2-3.3-2.9-6.5-4.6c-1.4-0.7-3.9-1.9-4.7-2.3
		 M41.7,51.5c-1.3,0.7-2.8,1.2-4.3,1.3c-2.2,0.2-4.4-0.5-6.2-1.7c-1.8-1.1-3.1-2.9-3.7-4.9c-0.1-0.4-1.2-4.2,0.6-6.2
		c0.7-0.7,1.1-1.5,1.4-2.4c0.2-0.4,0.2-0.9,0.1-1.3 M41.7,51.5c1.1-0.9,2-2.1,2.6-3.3c0.4-0.9,1.8-3.7,0.6-6.5
		c-1-2.4-3.4-3.5-4.9-4.1c-0.9-0.4-1.5-0.5-6.1-1.4c-1.4-0.2-2.8-0.4-4.1-0.8 M85.3,176c0,1.8,0.5,1,0.7,4 M82.9,175.8
		c0.1,1.9,0.7,1.5,1.1,4.2 M82.6,173.9c0,0,0,1.1,0.1,1.5c0.1,0.5,0.4,0.8,0.9,1c0.6,0.3,1.3,0.1,1.8-0.3c0.4-0.7,0.4-1.6,0.2-2.4
		 M78,165c0.4,1.4,0.7,3.1,0.8,3.9c0.1,1,0.3,1.9,0.8,2.8c1.1,2.2,3.7,3.1,5.9,2.2c1-0.4,1.8-1.2,2.3-2.2c0.2-0.6,0.4-1.3,0.3-2
		c0-1,0.6-3.6,0.7-5.6 M84.2,160c0.6,0.9,1.1,1.8,1.6,2.7c0.3,0.8,0.6,1.6,0.8,2.4 M83,160.3c0,1.3-0.1,3.9-0.1,5.2 M82.1,160.1
		c-0.5,0.7-0.9,1.4-1.3,2.1c-0.6,0.9-1.1,1.9-1.6,2.9 M81.5,159.6c-0.5,0.1-0.9,0.3-1.4,0.5c-0.5,0.3-0.9,0.6-1.3,1
		c-0.3,0.3-0.5,0.6-0.8,0.9c-0.6,0.8-0.7,1-0.8,1.2c0,0.3,0,0.6,0.1,0.9c0.1,0.3,0.4,1.4,1.1,1.4c0.4,0,0.6-0.3,1-0.2
		c0.2,0.1,0.2,0.2,0.4,0.4c0.5,0.5,1.4,0.4,1.8,0.3c0.4-0.1,0.9-0.2,1.3-0.4c0.2,0.1,0.4,0.3,0.6,0.3c1.1,0.2,2.2,0,3-0.7
		c0.9,0.3,1.9-0.1,2.2-1c0.1-0.2,0.1-0.4,0.1-0.6c0-0.5-0.3-0.8-1.1-1.6c-0.9-0.9-1.9-1.8-3-2.6 M82.8,158.7c-0.2,0-0.4,0.1-0.6,0.1
		c-0.3,0.1-0.6,0.2-0.6,0.4s0.2,0.7,0.6,0.9c0.4,0.1,0.8,0.2,1.1,0.1c0.7-0.1,1-0.1,1.3-0.4c0.1-0.1,0.3-0.4,0.2-0.6
		c-0.2-0.6-1.6-0.6-2-0.5L82.8,158.7z M99.1,165.8c-1.1,0.8-2.5,2.3-3.7,3.3c-1.4,1.3-3.5,3-4.6,4.2 M101.5,169.9
		c-1.1,0.9-2.7,2.3-3.9,3.2c-1.4,1-3.7,2.2-5.1,3.2 M104.1,173.6c-1.1,0.7-2.6,1.7-3.8,2.4c-1.6,0.9-3.7,2.6-5.2,3.3 M107.2,176.3
		c-1,0.8-2.1,1.5-3.2,2.1c-2.2,1.1-4.4,1.9-6.7,2.5 M97.6,161c-1.4,1.1-2.8,2.2-4.1,3.5c-1.3,1.4-2.5,2.9-3.5,4.4 M110.9,179.3
		c-0.9,0.4-2.4,1.1-3.5,1.5c-2.2,0.6-4.4,1-6.6,1.4 M95.6,155.2c-0.6,0.7-1.8,2.4-2.3,3.1c-1.1,1.4-2.9,4-3.8,5.3 M115.3,182.2
		c-0.8,0.3-2.6,0.8-3.6,1c-1.5,0.3-3.3,1.1-4.5,1.2 M127.3,185.2c-2.1,0.4-7.3,1.4-10.9,1.1c-4.2-0.3-8.4-1.3-12.4-2.9
		c-5.8-2-8.7-3.1-10.9-5.8c-1.4-1.9-2.4-4.1-2.9-6.4c-1.2-5.1-1-10.4,0.7-15.3c0.8-2.6,3.3-7.1,6.4-11.4 M113.3,149.2
		c0.1,1.1-1.3,2-2,2.4c-0.8,0.6-1.8,0.9-2.8,0.9c-0.9,0.1-1.8-0.2-2.5-0.8c-0.5-0.6-0.9-1.4-0.9-2.2c-0.2-1.2-0.4-2.1,0.2-2.9
		c0.9-1.3,3.1-1.1,3.3-1.1c1.5,0.2,2.5,1,3.6,2.1C112.9,148.2,113.3,148.6,113.3,149.2L113.3,149.2z M103.9,155.8
		c-0.3,0.6-0.9,1.1-1.6,1.3c-0.6,0.2-1.2,0.1-1.7-0.1c-0.6-0.2-1.2-0.6-1.5-1.2c-0.4-1,0.4-2.1,1-2.6c0.7-0.7,1.7-1,2.7-0.7
		C104,153.1,104.4,154.6,103.9,155.8L103.9,155.8z M109.2,169c-0.4,0.9-1.8,1.1-2.1,1.1c-0.8,0.1-1.6-0.1-2.3-0.6
		c-0.8-0.6-1.4-1.6-1.5-2.6c-0.2-0.8-0.4-1.9,0.2-2.5s2-0.4,2.7-0.1s1.2,0.9,1.9,2.1C109,167.7,109.4,168.3,109.2,169L109.2,169z
		 M111.9,161.2c0,0.9-0.2,1.8-0.8,2.6c-0.3,0.4-0.7,0.7-1.2,0.8c-0.8,0.1-1.7-0.3-2.3-0.9c-0.8-0.8-1.4-1.7-1.6-2.8
		c-0.5-1.3-0.5-2.7,0-3.9c0.5-1,1.7-2.6,3.2-2.5c0.9,0.2,1.7,0.8,2.2,1.7C112.1,157.3,112.1,158.6,111.9,161.2L111.9,161.2z
		 M119.9,159.4c-0.5,0.9-1.5,1.4-2.6,1.3c-0.8-0.2-1.5-0.7-1.9-1.4c-0.5-0.7-0.7-1.6-0.6-2.5c0.1-0.3,0.3-1.6,1.1-1.9s2,0.7,2.5,1.3
		S120.5,158.1,119.9,159.4L119.9,159.4z M124.1,152.5c0,0.9-0.4,1.7-1,2.3c-0.4,0.4-0.9,0.7-1.5,0.8c-0.9,0-1.7-0.3-2.4-0.9
		c-0.8-0.4-1.4-1.1-1.9-1.9c-0.5-0.8-0.6-1.8-0.4-2.7c0.1-0.9,0.7-1.7,1.5-2.2c0.9-0.2,1.8,0,2.5,0.5
		C121.5,148.7,124.2,150.2,124.1,152.5L124.1,152.5z M119,164.7c-0.2,1-0.8,1.8-1.7,2.2c-0.6,0.3-1.3,0.5-2,0.4
		c-1.2,0.2-2.4-0.7-2.6-1.9c-0.1-0.5,0-0.9,0.2-1.4c0.4-0.9,1.2-1.6,2.1-1.9c0.8-0.3,1.7-0.3,2.5,0.1
		C118.5,162.8,119,163.7,119,164.7L119,164.7z M118.6,177.3c-0.1,0.1-0.6,0.4-0.6,0.4c-1.4-0.2-0.9-0.5-2.8-1c-1-0.2-2-0.6-2.8-1.2
		c-0.7-0.6-1.2-1.4-1.4-2.3c-0.2-0.7-0.2-1.5,0.2-2.2c0.8-1.2,2.9-0.8,3.1-0.7c1,0.3,1.9,0.9,2.6,1.7c0.6,0.6,1.1,1.4,1.4,2.2
		C118.7,175.4,119,177.1,118.6,177.3z M124.8,176.3c-0.6,0.3-1.5-0.2-2-0.5c-1.1-0.7-1.9-1.7-2.4-2.9c-0.5-0.9-0.7-1.9-0.6-2.8
		c0-0.3,0.3-2.3,1.7-2.6c1-0.2,1.9,0.3,2.4,1.1c0.4,0.6,0.2,0.9,0.4,2.2c0.4,1.8,0.9,2,1,3.4C125.4,174.6,125.5,175.9,124.8,176.3
		L124.8,176.3z M131.8,163.1c-0.5,1-1.2,1.8-2.2,2.2c-0.9,0.5-1.9,0.5-2.9,0.2c-0.9-0.5-1.5-1.3-1.8-2.3c-0.5-1.5-0.5-3.1,0-4.6
		c0.2-1.1,0.7-2.1,1.4-2.9c0.5-0.7,1.4-1.1,2.3-1.2c1.2,0.1,1.9,1.3,2.7,2.6c0.6,0.9,1,1.9,1.1,3
		C132.5,161.1,132.3,162.1,131.8,163.1L131.8,163.1z M132.6,178.9c-1,0.2-2.1-1.2-2.8-2.2c-0.6-0.7-1.1-1.6-1.3-2.5
		c-0.3-1.1-0.7-2.3-0.1-3.3c0.6-0.9,1.8-1.4,2.9-1.2c1.4,0.3,2,2,2.5,3.3c0.5,1.3,0.6,2.7,0.1,4.1
		C133.6,177.7,133.3,178.7,132.6,178.9L132.6,178.9z M136.1,162.4c0.1,0.8,0.4,0.3,0.5,1.8c0.3,3.4,0.4,5.1,0.4,7.4
		c0,3.6,0,5.5-0.9,7.6c-0.5,1.3-1.3,2.5-2.2,3.4c-3.6,3.5-9.3,2.6-10.9,2.3c-2.3-0.4-4.4-1.2-6.4-2.3c-2.8-1.3-5.5-3-7.9-5
		c-3-2.3-5.6-5.1-7.5-8.3c-1-1.9-1.9-3.9-2.7-6c-0.5-1.3-0.9-2.5-1.7-4.8c-0.9-2.8-1.4-4.2-1.5-4.8c-0.4-2.7,0.1-5.4,1.4-7.8
		c2.7-4.8,8.2-5.7,9.4-5.9c2.6-0.4,6.1,0.3,9.6,1.7 M123,145.2c2.5,1.1,4.8,2.6,6.8,4.5c0.7,0.6-0.1-0.3,0.7,0.6 M199.2,27.9
		c-0.4,0.6-0.8,1.2-1,1.8c-0.3,0.8-0.5,1.6-0.6,2.5 M195.7,30.7c0.4-0.7,0.8-1.3,1.4-1.9c0.5-0.5,1.1-0.9,1.7-1.2 M194.2,26.4
		l4.6,0.8 M195.6,24.4l3.7,2.3 M199.7,28.1c0.3,1,0.7,2.6,1,3.6 M200.1,28l3,2.5 M204.6,28.5c-0.7-0.2-2.1-0.2-2.9-0.4l-1.5-0.4
		 M204.8,26.4c-0.7,0.2-1.9,0.3-2.5,0.4l-2.1,0.5 M204.4,24.1c-0.5,0.3-1.7,0.6-2.2,1c-0.7,0.6-1.4,1.2-2.1,1.8 M201.7,21.8
		c-0.2,0.4-0.3,1.4-0.5,1.8c-0.5,1-1,2.1-1.5,3.1 M199.4,26.7c-0.1-0.5-0.1-1.1-0.1-1.6c-0.1-1.1-0.1-2.3,0-3.4 M204.9,25.1
		c0.3,1.1,0.2,2.3-0.3,3.3c-0.8,1.8-2.4,3.2-4.3,3.7c-1.6,0.4-3.4,0.1-4.7-1c-1.1-1.1-1.6-2.7-1.4-4.2c0.3-2,1.7-3.8,3.5-4.7
		c1.2-0.7,2.6-0.8,3.9-0.4c1.1,0.4,2.1,1.2,2.7,2.2C204.6,24.3,204.8,24.7,204.9,25.1 M186,165.1l3.9-2.8c-0.6,0.6-1.3,1.2-2,1.7
		C187.3,164.4,186.7,164.8,186,165.1 M189.7,161.7c-0.9,0-1.9,0-2.8,0.1c-1.2,0.1-2.4,0.3-3.6,0.5 M190.1,161.3l-2.2-1.4
		c-1-0.6-2.7-1.1-3.7-1.8 M190.5,162.7c-0.1,0.4-0.3,0.9-0.5,1.3c-0.5,1.5-1.2,3-2,4.5 M190.8,162.8c0.2,0.9,0.4,1.8,0.5,2.7
		c0,1.2-0.1,2.4-0.3,3.6 M193.9,168.5c-0.3-0.6-0.7-2.1-1.1-2.8c-0.6-0.9-1.2-1.8-1.9-2.6 M196.7,166.8c-0.6-0.6-2.3-1.6-3-2.3
		s-1.7-1.4-2.5-1.9 M197.6,164.5c-0.8-0.3-2-0.6-2.9-0.9c-1.1-0.4-2.2-0.7-3.2-1 M197.7,161.5c-0.9,0.2-1.8,0.4-2.7,0.5
		c-1.2,0.2-2.4,0.3-3.6,0.2 M196.7,159.3c-0.6,0.4-2,0.5-2.6,0.9l-2.7,1.7 M194.4,156c-0.3,0.7-0.8,2.2-1.2,3s-1.3,1.7-1.7,2.4
		 M190.2,161.2c-0.1-0.8-0.3-1.6-0.5-2.4c-0.7-1.3-2.6-2.6-3.3-3.4 M191,161.1c0.1-0.9,0-1.7-0.2-2.6c-0.2-0.6-0.4-1.2-0.7-1.7
		c-0.4-0.8-0.9-1.6-1.4-2.3 M191.2,161.1c0.5-1,0.8-2,1.1-3c0.2-0.8,0.1-2.5,0.2-3.3 M184,164.4c-0.6-1.6-0.6-3.4-0.1-5.1
		c0.4-1.5,1.2-2.9,2.5-3.9 M186.4,155.4c1.5-1,3.3-1.4,5.1-1c3.1,0.7,4.5,3.5,5.2,4.8c0.9,1.4,1.3,3,1.1,4.7
		c-0.6,2.9-3.5,4.3-3.9,4.4c-2.3,1-5,0.8-7.1-0.6 M50.1,40.9c1,1.2,0.4,1.5,1.9,3.6c4.5,6,7.4,10,10.2,15.2
		c2.2,4.2,3.6,7.8,6.3,15.1c1.3,3.6,2.8,7.1,3.5,9.2 M60.6,72.2c0.7,1.7,1.8,4.7,3.1,7.4c0,0,0.4,1,0.9,1.9 M58.3,72.9
		c0.8,1.8,2.9,5.3,4.3,7.7c1.1,2-0.6-0.9,0.5,0.7 M57.3,71.2c0,0,0.4,1,0.6,1.4c0.3,0.4,0.7,0.6,1.2,0.6c0.7,0,1.2-0.4,1.5-1
		c0.1-0.8-0.2-1.6-0.7-2.3 M49.7,64.7c0.9,1.2,1.8,2.6,2.2,3.3c0.4,0.9,1,1.6,1.7,2.3c0.7,0.6,1.6,1,2.6,1.1
		c1.4,0.1,2.7-0.4,3.7-1.3c0.8-0.8,1.3-1.8,1.3-2.9c0-0.7-0.2-1.4-0.4-2c-0.3-0.9-0.9-3.6-1.5-5.4 M53.6,57.7
		c0.9,0.6,1.7,1.2,2.5,1.9c0.6,0.6,1.1,1.2,1.7,1.9 M52.6,58.4c0.5,1.2,1.4,3.6,1.9,4.9 M51.7,58.6c-0.2,0.8-0.3,1.6-0.4,2.5
		c-0.2,1.1-0.4,2.2-0.4,3.3 M51,58.3c-0.4,0.3-0.7,0.6-1,1c-0.4,0.4-0.7,0.9-0.9,1.4c-0.2,0.4-0.3,0.7-0.4,1.1
		c-0.3,1-0.3,1.2-0.3,1.4c0.1,0.3,0.2,0.6,0.5,0.8c0.2,0.2,0.9,1.1,1.5,0.9c0.4-0.1,0.5-0.5,0.8-0.5c0.2,0,0.3,0.1,0.5,0.2
		c0.6,0.3,1.4-0.2,1.8-0.4c0.4-0.2,0.7-0.5,1-0.9c0.2,0.1,0.5,0.1,0.7,0.1c1.1-0.2,2-0.9,2.5-1.8c0.3,0,0.6-0.1,0.9-0.2
		c0.6-0.4,0.9-1.2,0.7-2c-0.2-0.4-0.6-0.7-1.6-1c-1.2-0.5-2.5-0.9-3.8-1.3 M51.8,57.1c-0.2,0.1-0.4,0.2-0.5,0.3
		c-0.3,0.2-0.4,0.4-0.4,0.6s0.5,0.6,0.9,0.6s0.6-0.1,1.1-0.4s0.9-0.5,1-0.8c0-0.1,0.2-0.5,0-0.7C53.4,56.3,52.1,56.9,51.8,57.1
		L51.8,57.1z M154.8,141.6c-0.4,1.1-1.2,3-1.7,4.8c-0.6,2-1.1,4.1-1.4,6.2c-0.3,3.1-0.2,6.2,0.4,9.3 M149.4,137.8c0.5,1,0.9,2,1.2,3
		c0.6,2.7,0.8,5.4,0.4,8.2c-0.3,4.6,0,9.2,0.7,13.8 M143.6,142.3c1.2,0.7,2.3,1.5,3.1,2.6c1,1.3,1.2,2.5,1.9,6.1
		c0.3,1.7,0.7,3.7,1,4.9c0.4,1.7,2,7.4,1.9,7.1 M149.2,176.6c-0.3-0.1-0.6-0.2-0.8-0.5c-0.1-0.2-0.2-0.5-0.2-0.8
		c-0.1-0.8-0.5-1.5-1.1-2.1c-0.5-0.5-1.2-1-1.9-1.2c-3.1-1.5-3.4-1.5-4.1-2c-0.9-0.6-1.8-1.4-2.5-2.3c-1.3-1.6-2.2-3.4-2.7-5.4
		c-1.7-5.6-3-5.4-6.4-14.3c-0.6-1.6-2.5-6.4-1.9-4.8c0-0.3,0.1-0.5,0.3-0.7c0.1-0.1,0.4-0.2,1.2,0.1c0.6,0.2,1.1,0.5,1.6,0.9
		c1.3,1.1,2.8,2,4.3,2.7c1.7,0.8,1.7,0.3,3.5,1s1.4,1.1,4.1,2.8l0.5,0.3 M143.5,150.4c1,0.6,3,1.9,4.5,3c0.1,0.1,0.3,0.2,0.4,0.3
		c0.5,0.6,0.7,1.3,0.7,2.1c0,0.9,0.7,3.6,2.4,8.5 M143.6,142.3c0.2-0.2,0.3-0.5,0.2-0.8c-0.1-0.3-0.3-0.5-0.6-0.6
		c-0.1,0-0.6-0.3-0.9,0s-0.2,0.8,0,1.1c0.1,0.3,0.4,0.5,0.6,0.6C143.3,142.6,143.5,142.5,143.6,142.3z M149.9,137.2
		c0.1-0.3,0.3-0.6,0.1-0.9c-0.2-0.2-0.5-0.3-0.8-0.3c-0.3,0.1-0.5,0.2-0.6,0.5c-0.1,0.3,0,0.6,0.2,0.8c0.1,0.1,0.3,0.4,0.6,0.4
		S149.8,137.4,149.9,137.2L149.9,137.2z M154.8,141.5c0.3,0,0.5-0.1,0.6-0.4c0.1-0.3,0.1-0.6-0.1-0.8c-0.1-0.2-0.3-0.4-0.6-0.4
		c-0.3,0-0.5,0-0.7,0.2c-0.2,0.3-0.1,0.6,0,0.9C154.2,141.3,154.5,141.5,154.8,141.5L154.8,141.5z M180.7,147.6
		c-0.2,0.1-0.4,0.3-0.5,0.5c-0.1,0.5,0.2,1.1,0.7,1.2c0,0,0,0,0,0c0.3,0,0.5-0.1,0.8-0.3c0.2-0.3,0.3-0.6,0.3-1
		c0-0.2-0.2-0.5-0.4-0.6C181.2,147.4,180.9,147.4,180.7,147.6L180.7,147.6z M170.9,154.4c1.4-1.5,3-2.8,4.8-3.8
		c1.4-0.8,2.9-1.4,4.5-1.8 M183.8,164.5c-1.2,0.3-3,1-4.3,1.5s-3,1.1-4,1.6 M188.1,166c-2.2,0.8-4.8,1.4-5.9,1.8
		c-1.6,0.5-3.1,1-4.6,1.7c-0.8,0.4-1,0.5-2.6,1.3s-3.7,1.7-4.5,2.1 M149.2,176.6c1.8-0.1,5.6-0.3,8.4-1.8c4.6-2.5,6.8-6.4,8.8-10.1
		c3.1-5.9,5.2-12.3,6.4-18.9c0-0.5-0.2-1-0.7-1.3c-0.3-0.2-0.7-0.2-1-0.2c-0.8,0.1-1.5,0.3-2.1,0.7c-2.2,1.4-6,1.7-9.2,4
		c-1.8,1.4-3.5,2.7-5.6,8c-2.3,5.6-3.8,11.4-4.6,17.3 M149.5,174.2c-0.1,0.8-0.2,1.6-0.3,2.4 M149.2,176.6c1.9,1.3,4,2.3,6.3,2.9
		c2.7,0.5,5.5,0.1,8-0.9c2.6-1.1,4-2.4,8-6.6c4.3-4.5,8.6-8.9,12.8-13.4c0.1-0.5,0.1-1-0.1-1.5c-0.5-1-1.9-1.3-2.8-1.5
		c-4.9-0.9-7.4-1.3-9.3-1.2c0,0,0.4-0.2-1.1,0 M149.2,176.6c1.7,1,4.7,3.1,8.2,3.8c3.1,0.5,6.2,0.5,9.2,0c4.4-0.8,8.6-2.5,12.3-5.1
		c6-3.9,6.8-6.9,9.2-8.5c0.1-0.1,0.3-0.2,0.3-0.4c0-0.9-4.9-2.3-9.1-2.6 M201.5,43.9c0.3-0.1,0.5-0.2,0.8-0.2
		c1.2,0.1,1.3,0.3,1.5,0.4c0.3,0.3,0.4,0.6,0.5,0.9c0,0.4,0,0.7-0.1,1.1 M204.4,45.2c1.5,0,3-0.2,4.3-0.8c1.8-0.8,3.3-2.2,4.4-3.8
		c0.9-1.3,1.6-2.8,2-4.3c0.3-1.2,1.4-4.8,1.4-5.6 M203.9,44.4c1.3-1,2.5-2,3.7-3.1c2-1.9,3.9-3.9,5.6-6c1-1.1,2.8-3.9,3.3-4.6
		 M203.5,43.8c0.4-1.8,1.1-3.6,2.3-5.1c1.4-1.9,3-2.9,5.8-4.7c1.6-1,4-3,5-3.4 M202.3,43.7c-0.3-1-0.5-2.1-0.4-3.2
		c0.3-1.8,1.2-3.4,2.5-4.7c1.8-1.8,3.7-2.5,7.1-3.6c1.5-0.5,4.1-1.4,5-1.6 M216.4,31.6c-0.1,0.4-0.2,0.9-0.1,1.3
		c0.2,0.9,0.5,1.8,1.1,2.6c1.5,2.2-0.1,5.8-0.3,6.2c-0.9,1.9-2.4,3.5-4.4,4.4c-2,1-4.2,1.3-6.3,0.9c-1.5-0.3-2.9-1-4.1-1.9
		c0,0-5.6,6.5-6,7 M202.4,45.1c-0.9-1.1-1.7-2.3-2.1-3.7c-0.3-1-1.2-4,0.3-6.5c1.4-2.3,3.9-3,5.5-3.4c1-0.3,1.5-0.3,6.3-0.5
		c1.4,0,2.8,0,4.2-0.2 M120.9,102.3c-1.6-0.6-2-0.1-3-0.6c-1.4-0.7-1-1.7-2.5-2.7c-1.3-0.9-2.1-0.5-2.7-1.3s-0.2-1.3,0-2.9
		c0.3-2.1,0.3-4.3,0.2-6.5c-0.1-1-0.2-1.9-0.2-3.5s0.1-2.4,0.6-3c0.4-0.5,1-0.9,1.6-1.1c-0.2-0.5-0.2-1.1,0-1.6
		c0.6-0.8,1.6-1.1,2.5-0.6c0.5-1.5,1.1-1.9,1.6-2.1c0.8-0.3,1.2,0.4,3.3,0.6c0.7,0.1,1.9,0.2,1.9,0.2c0.6-0.5,1.3-0.7,2.1-0.8
		c0.8-0.1,1.6,0.1,2.2,0.5c0.5,0.3,0.9,0.8,1.1,1.3c1-0.1,2-0.1,3,0c1.4,0.2,2.4,0.3,3.2,1.1c0.5,0.6,0.8,1.4,0.8,2.2
		c1,0.4,1.8,1.1,2.2,2c0.3,1,0.4,2,0.3,3l0.2,2.8l-1.6,3.5c0.3,1.1,0.3,2.2,0,3.3c-0.1,0.5-0.4,1.6-1,1.6s-0.8-0.5-1.1-1.3
		c-2.2,0.8-2.8,1.8-3,2.5c-0.1,0.6,0,1-0.3,1.6c-0.5,0.6-1.2,1.1-2.1,1.1c0,0-1.1,0.9-1.6,1.3c-1.6,1.1-4,0.9-5.5,0.3
		C122.1,103,122.2,102.8,120.9,102.3z M57.6,98.3c1-0.8,2-1.4,3.1-2c2.3-0.8,4.7-1.3,7.1-1.6c4.4-0.7,7.7-0.9,8.8-0.9
		c5-0.4,10.1-0.1,15,0.8 M90.5,93.1c-1.5-0.2-5.2,0-7.8-0.2c-4.3-0.3-8.5-0.3-12.8-0.1c-5.6,0.2-8.4,0.2-10,0.7
		c-4.2,1.3-5.6,4.2-7.4,6.1 M79.6,89.9c-1.1-0.5-1.6-0.2-3.4-0.6c-2-0.4-4-0.6-6-0.5c-2.7,0.2-5.5,0.7-8.1,1.6
		c-2.7,0.7-5.4,1.5-7.9,2.6c-0.9,0.4-3.4,1.4-4.1,1.7 M75.7,86c-2.7-0.1-5.7,0.2-7.4,0.3c-1.9,0-3.8,0.2-5.7,0.4c-2,0.3-4,0.7-6,1.3
		c-1.8,0.4-3.5,0.9-5.2,1.6 M94.1,97.4C92,97.1,89.9,97,87.7,97c-4.2-0.2-4.8,0.5-11.2,0.7c-3.8,0.2-5.9,0-9.1,0.7
		c-0.4,0.1-2,0.8-5.4,2.4c-0.7,0.6-1.3,1.3-1.7,2.1c-0.1,0.2,0.4-0.6,0.4-0.5 M96.2,98.2c-1.5-0.2-3.2,0.4-5.7,0.3
		c-1.9-0.1-3.9-0.1-5.8,0.1c-2.4,0.4-4.6,1.1-6.8,2.1c-2.6,1.2-5.1,2.6-7.4,4.2c-0.6,0.4-1.2,0.9-1.6,1.5c-0.2,0.6-0.4,1.2-0.5,1.8
		 M98.1,99.8c-1.8-0.3-3.7-0.5-5.6-0.5c-1.3,0-1.4,0.1-7.3,1.1c0,0-0.5,0.1-5.8,1.4c-1,0.2-2,0.8-2.7,1.6c-0.2,0.3-0.3,1.4-0.4,1.6
		 M106,105.5c-1.7-0.8-5.8-2.1-6.8-2.5c-0.6-0.2-1.2-0.4-1.8-0.5c-1.1-0.1-2.2,0-3.3,0.4c-1.2,0.5-2.4,1-3.5,1.6
		c-0.9,0.4-1.9,0.8-2.9,1c-1.5,0.3-1.5-0.1-3.3,0.1c-1.3,0.2-2.6,0.5-3.9,0.9l-1.3,1.2 M194.6,113.5c-2.3-0.6-5.2-1.3-8.6-2
		c-4.3-0.9-6.5-1.4-8.9-1.7c-7.9-1-11,0.3-15.1-1.5c-0.1,0-1.9-0.8-4.3-1.8c-1.2-0.6-2.5-1.1-3.8-1.5c-2-0.5-2.8-0.3-5.1-0.6
		c-1.8-0.2-3.5-0.6-5.2-1.1 M196.9,105.4c-1.2-0.1-2.4,0-3.5,0.2c-2.1,0.4-2.9,1.2-4.9,1.8c-1.4,0.3-2.8,0.4-4.2,0.4
		c-3.3-0.1-4.9-0.8-8.6-1.6c-2.6-0.5-5.2-0.9-7.8-1.1c-2.6-0.3-3.1-0.2-9.3-0.7c-3-0.2-4.5-0.4-5.2-0.4c-3.9-0.4-7.7-1.3-11.4-2.7
		 M185.8,43.6c-1.9,1.9-4.9,5.1-8.2,8.9c-3.7,4.2-4.8,5.6-7.9,9c-3.5,3.9-6.3,6.5-9.5,9.5c-3.4,3.2-7.9,7.2-13.3,11.7 M184.2,42.2
		c-1.1,1.3-3.5,3.7-5.4,6c-2,2.6-2.3,3-3.9,5.1c-2.9,3.7-5.2,6.3-7.4,8.8c-2.5,2.8-3.7,4.2-5.4,5.8c-2.4,2.3-4,3.6-6.3,5.5
		s-5.6,4.7-9.4,8.4 M180.4,37.7c-0.4,1.4-1,2.7-1.7,3.9c-0.8,1.3-1.9,2.5-3.1,3.6c-4.2,4.1-4,3.7-4.3,4.1c-1.4,1.8-0.8,1.9-3.2,6.8
		c-1.9,3.7-2.1,3.5-3.1,5.9c-0.8,1.9-0.8,2.7-1.7,3.8c-1.1,1.3-2.4,1.6-4,2.4c-2,1.2-3.9,2.6-5.6,4.1c-3.9,3.1-6.8,5.9-9.8,8.8
		c-1,0.9,0.5-0.5,0,0 M169.9,30c-0.8,1.5-1.9,3.6-2.4,4.3c-0.9,1.3-1.3,1.8-2.4,3.6c-0.8,1.2-1.2,1.8-1.5,2.4
		c-0.7,1.5-1.2,3-1.5,4.6c-1,2.4-2.1,4.8-3.3,7.1c-1.6,3.3-2.5,5-3.5,6.8c-0.5,0.8-0.9,1.6-1.6,2.8c-1.1,2-1.4,2.8-2.1,4.2
		c-1,2-2.2,4-3.6,5.8c-1.3,1.8-2.7,3.5-4.3,5.1 M167.7,30.9c-0.5,0.2-1.4,1.9-2.1,2.7c-0.7,0.8-1.3,1.8-1.6,2.9
		c-0.6,1.6-0.4,1.8-0.9,3.2c-0.4,1-0.9,2-1.5,2.9l-2.6,4.4c-1.5,2.5-2.7,5-3.7,7.7c-1.6,4.1-1.2,4.2-2.6,7.2c-0.9,2-2.1,3.9-3.5,5.7
		c-1.5,1.8-2.3,2.3-3.8,4.3c-1.3,1.7-2.5,3.5-3.6,5.4 M157.4,27.1c-0.5,0.7-2.1,2-2.6,3.5c-0.9,2.7-0.3,4.1-0.8,7
		c-0.2,1.3-0.9,3.1-2.4,6.6c-1.7,4.1-1.8,3.9-3.1,7.1c-1.9,4.6-2.8,6.9-2.6,8.8c0.3,1.4,0.3,2.8,0,4.1c-0.4,0.9-0.8,1.8-1.2,2.6
		c-1,2.1-1.4,3.2-1.5,4.3s0.3,1.8-0.2,2.8c-0.3,0.7-2.7,2-3.1,2.3 M182.5,21.4c-0.6,1-2,2.8-2.8,3.9s-1.9,3.5-2.7,4.4 M173.2,8.9
		c-0.2,0.6-0.9,3-1.3,4c-0.9,2.1-2,4.1-3.4,6c-2.2,3.2-4.2,6.6-6,10.1 M141,2.7c-0.2,0.4-1.4,2.1-1.8,2.8c-0.5,1-0.6,1.2-0.8,1.6
		c-0.3,0.9-0.5,1.8-0.5,2.7c-0.1,1.3-0.5,2.1-1.7,4.3c-2.1,4-4,7.4-4.8,9c-1.5,2.8-2.8,5.8-3.9,8.8c-0.8,2.6-1.5,5.2-2,7.8
		c-1.2,5.3-1.8,8-1.9,10.7c0,1.3-0.1,2.7-0.4,4c-0.4,1.6-0.9,2.1-0.9,3.3s0.4,1.3,0.9,3c0.3,1.3,0.4,2.7,0.4,4
		c0.1,1.1,0.2,2.5,0.2,4.1"/>
	<path class="st0" d="M50.1,215.9l-1.9-2.2"/>
	<path class="st0" d="M50.1,214.5c-0.8-0.6-1.5-1.3-2-2.2c-0.4-0.6-0.7-1.3-0.9-2"/>
	<path class="st0" d="M50.8,212.5c-0.7-0.3-1.3-0.8-1.8-1.3c-0.4-0.5-0.8-1.2-1.1-1.8"/>
	<path class="st0" d="M51.9,211.1c-0.7-0.3-1.3-0.8-1.8-1.3c-0.4-0.5-0.8-1.2-1-1.8"/>
	<path class="st0" d="M51.9,211.1c-0.7-0.3-1.3-0.8-1.8-1.3c-0.4-0.5-0.8-1.2-1-1.8"/>
	<path class="st0" d="M53.5,209.8c-0.7-0.3-1.3-0.8-1.8-1.3c-0.4-0.5-0.8-1.2-1-1.8"/>
	<path class="st0" d="M55.2,209.9c-0.7-0.3-1.3-0.8-1.8-1.3c-0.5-0.5-0.8-1.2-1.1-1.8"/>
	<path class="st0" d="M56.9,210c-0.7-0.3-1.3-0.8-1.8-1.3c-0.4-0.5-0.8-1.2-1-1.8"/>
	<path class="st0" d="M59.1,210.2c-0.7-0.3-1.3-0.8-1.8-1.3c-0.5-0.5-0.8-1.2-1.1-1.8"/>
	<path class="st0" d="M61.2,211.4c-0.7-0.3-1.3-0.8-1.8-1.3c-0.4-0.5-0.8-1.2-1-1.8"/>
	<path class="st0" d="M64.8,214.9l-1.4-2.7"/>
	<path class="st0" d="M67.1,216.1l-1.9-2.2"/>
	<path class="st0" d="M62.4,212l-1.8-2.2"/>
	<path class="st0" d="M56.9,231.7c0.3-1.4,0.4-2.9,0.3-4.3c-0.1-1.1-0.7-2.5-1.1-2.4c-0.6,0.1-0.6,2.7-0.6,3.1
		c0,1.2,0.2,2.4,0.6,3.5C56.5,232,56.8,231.8,56.9,231.7z"/>
	<path class="st0" d="M128.3,229.7c0,0-7.8-5.3-13.5-17.2c-6.6-13.9-33.1-32.9-36.8-33.6"/>
	<path class="st0" d="M135.7,262.9c0.8,12.9-4.9,38.6,5.6,67"/>
	<path class="st0" d="M91.5,391.9c0,0,83.2-21.3,100.8-90.1s-1-120.9-7.3-131.6"/>
	<path class="st0" d="M164.2,180.6c0.3-1.3,49.9,100.7-17.2,184.3"/>
	<path class="st0" d="M142.3,230.8"/>
	<path class="st0" d="M104,183.4"/>
	<path class="st0" d="M91.5,391.9c0,0,211.7,34.7,124.6-231.2"/>
	<path class="st0" d="M122.9,184.9c1.4,3.2,51.6,57.4,52.6,125.8"/>
	<path class="st0" d="M141.8,256c0,0,2.1,48.8,6.8,53.9"/>
	<path class="st0" d="M200.5,163.1c0,0,37,111.2,7.7,174.7"/>
	<path class="st0" d="M175.5,176.3c0,0,24,87.4,18.4,118.8"/>
	<path class="st0" d="M104,183.4c0,0,31.7,41.1,49.2,46"/>
	<path class="st0" d="M144.4,225.5c0,0,14.5,41.1,12.8,48.5"/>
	<path class="st0" d="M148.5,179c0,0,28.8,80.7,33.3,87.1"/>
	<path class="st0" d="M166.1,259.7c0,0-5.9,74.7-4.8,84.2"/>
	<path class="st0" d="M154.5,288.3c0,0-2.3,70.4-23.5,86.9"/>
	<path class="st0" d="M209,194.6c0.1-1.7,0.1,134.7-9.3,155.6"/>
	<path class="st0" d="M206.9,290.6c0,0-18.5,69.9-34.9,86.2"/>
	<path class="st0" d="M107.6,386.4c0,0,56.1-7.5,81.4-40.9"/>
	<path class="st0" d="M139.5,180.9c0,0,23.4,58.6,32.5,61.9"/>
	<path class="st0" d="M178.8,380.3c0,0,17.6,16,52.9,10.5c0,0-20.5-16.2-10.2-51"/>
	<path class="st0" d="M193.5,371.6c0,0,17.4,19.3,38.3,19.3"/>
	<path class="st0" d="M163.6,386.1c0,0,26.2,8.4,39.4,4.7"/>
</g>
</svg>
